<svg width="64" height="64" viewBox="0 0 64 64" fill="none" xmlns="http://www.w3.org/2000/svg">
<circle opacity="0.7" cx="32" cy="32" r="32" fill="#1D1D1D"/>
<path d="M29.0006 26H30.5006C32.1575 26 33.5006 27.3431 33.5006 29M33.5006 29V30.5M33.5006 29C33.5006 28.1716 34.1722 27.5 35.0006 27.5C36.6575 27.5 38.0006 28.8431 38.0006 30.5M38.0006 30.5V32M38.0006 30.5C38.0006 29.7148 38.7057 29.1175 39.4802 29.2466L39.9938 29.3322C41.4404 29.5733 42.5006 30.8249 42.5006 32.2914L42.5 34.5002C42.5 37.7602 42.5 39.3903 42.0034 40.688C41.7154 41.4408 40.9554 42.4008 40.3477 43.0946C39.8222 43.6946 39.5 44.4557 39.5 45.2534V47.0002M29.0003 29V19.25C29.0003 18.0074 27.993 17 26.7503 17C25.5077 17 24.5003 18.0074 24.5003 19.25L24.5 34.1937L22.0695 31.7556C21.0032 30.6858 19.2466 30.7834 18.3045 31.9647C17.5836 32.8687 17.5637 34.1473 18.2561 35.0734L23.6556 41.9707C24.6887 43.2903 25.25 45.3243 25.25 47.0002" stroke="white" stroke-width="1.5" stroke-linecap="round" stroke-linejoin="round"/>
<path d="M37.25 20.75L46.25 20.75M37.25 20.75C37.25 19.6997 40.2415 17.7373 41 17M37.25 20.75C37.25 21.8003 40.2415 23.7627 41 24.5" stroke="white" stroke-width="1.5" stroke-linecap="round" stroke-linejoin="round"/>
</svg>
