<svg width="100" height="101" viewBox="0 0 100 101" fill="none" xmlns="http://www.w3.org/2000/svg">
<path fill-rule="evenodd" clip-rule="evenodd" d="M50 86.5C69.8823 86.5 86 70.3823 86 50.5C86 30.6177 69.8823 14.5 50 14.5C30.1177 14.5 14 30.6177 14 50.5C14 70.3823 30.1177 86.5 50 86.5ZM50 90.5C72.0914 90.5 90 72.5914 90 50.5C90 28.4086 72.0914 10.5 50 10.5C27.9086 10.5 10 28.4086 10 50.5C10 72.5914 27.9086 90.5 50 90.5ZM50 30.5C51.1046 30.5 52 31.3954 52 32.5V56.5C52 57.6046 51.1046 58.5 50 58.5C48.8954 58.5 48 57.6046 48 56.5V32.5C48 31.3954 48.8954 30.5 50 30.5ZM50 69.5C51.656 69.5 53 68.156 53 66.5C53 64.844 51.656 63.5 50 63.5C48.344 63.5 47 64.844 47 66.5C47 68.156 48.344 69.5 50 69.5Z" fill="#C6C6C6"/>
</svg>
