<svg width="100" height="100" viewBox="0 0 100 100" fill="none" xmlns="http://www.w3.org/2000/svg">
<path fill-rule="evenodd" clip-rule="evenodd" d="M86 50C86 69.8823 69.8823 86 50 86C30.1177 86 14 69.8823 14 50C14 30.1177 30.1177 14 50 14C69.8823 14 86 30.1177 86 50ZM90 50C90 72.0914 72.0914 90 50 90C27.9086 90 10 72.0914 10 50C10 27.9086 27.9086 10 50 10C72.0914 10 90 27.9086 90 50ZM71.4377 38.0503C72.2055 37.2562 72.1841 35.99 71.39 35.2223C70.5959 34.4545 69.3297 34.4759 68.562 35.27L44.2108 60.4575L31.4302 47.3833C30.6581 46.5934 29.3918 46.579 28.6019 47.3511C27.8121 48.1233 27.7977 49.3895 28.5698 50.1794L42.7885 64.7248C43.1662 65.1111 43.684 65.3282 44.2242 65.3267C44.7644 65.3252 45.2811 65.1053 45.6566 64.7169L71.4377 38.0503Z" fill="url(#paint0_linear_641_23842)"/>
<defs>
<linearGradient id="paint0_linear_641_23842" x1="5.22388" y1="-8" x2="85.3136" y2="27.1387" gradientUnits="userSpaceOnUse">
<stop stop-color="#00866B"/>
<stop offset="1" stop-color="#014AAA"/>
</linearGradient>
</defs>
</svg>
