<svg width="24" height="24" viewBox="0 0 24 24" fill="none" xmlns="http://www.w3.org/2000/svg">
<rect width="20" height="20" rx="10" transform="matrix(1 0 0 -1 2 22)" fill="#EB003B"/>
<path fill-rule="evenodd" clip-rule="evenodd" d="M13 7.19922H11V13.5992H13V7.19922ZM11.1763 16.7755C11.4071 17.0028 11.6824 17.1164 12.002 17.1164C12.215 17.1164 12.4086 17.0649 12.5826 16.9619C12.7601 16.8554 12.9022 16.7134 13.0087 16.5358C13.1188 16.3583 13.1738 16.1612 13.1738 15.9445C13.1738 15.6249 13.0566 15.3515 12.8223 15.1242C12.5914 14.897 12.318 14.7833 12.002 14.7833C11.6824 14.7833 11.4071 14.897 11.1763 15.1242C10.9455 15.3515 10.8301 15.6249 10.8301 15.9445C10.8301 16.2713 10.9455 16.5482 11.1763 16.7755Z" fill="white"/>
</svg>
