<svg width="20" height="21" viewBox="0 0 20 21" fill="none" xmlns="http://www.w3.org/2000/svg">
<path d="M10.797 3.58742C10.512 3.37445 10.3695 3.26797 10.2122 3.22704C10.0734 3.19092 9.92704 3.19092 9.78821 3.22704C9.63088 3.26797 9.4884 3.37445 9.20344 3.58742L3.70223 7.69868C3.3345 7.9735 3.15064 8.11091 3.01817 8.28299C2.90084 8.43543 2.81343 8.60715 2.76024 8.78973C2.7002 8.99585 2.7002 9.21967 2.7002 9.6673V15.306C2.7002 16.1789 2.7002 16.6154 2.87701 16.9489C3.03253 17.2422 3.2807 17.4806 3.58594 17.6301C3.93296 17.8 4.38722 17.8 5.29575 17.8H6.91797C7.14511 17.8 7.25867 17.8 7.34543 17.7575C7.42174 17.7201 7.48378 17.6605 7.52266 17.5872C7.56686 17.5038 7.56686 17.3947 7.56686 17.1765V12.0326C7.56686 11.5961 7.56686 11.3779 7.65527 11.2112C7.73303 11.0645 7.85712 10.9453 8.00974 10.8706C8.18324 10.7856 8.41038 10.7856 8.86464 10.7856H11.1358C11.59 10.7856 11.8171 10.7856 11.9907 10.8706C12.1433 10.9453 12.2674 11.0645 12.3451 11.2112C12.4335 11.3779 12.4335 11.5961 12.4335 12.0326V17.1765C12.4335 17.3947 12.4335 17.5038 12.4777 17.5872C12.5166 17.6605 12.5787 17.7201 12.655 17.7575C12.7417 17.8 12.8553 17.8 13.0824 17.8H14.7046C15.6132 17.8 16.0674 17.8 16.4144 17.6301C16.7197 17.4806 16.9679 17.2422 17.1234 16.9489C17.3002 16.6154 17.3002 16.1789 17.3002 15.306V9.6673C17.3002 9.21967 17.3002 8.99585 17.2402 8.78973C17.187 8.60715 17.0996 8.43543 16.9822 8.28299C16.8498 8.11091 16.6659 7.9735 16.2982 7.69868L10.797 3.58742Z" fill="#014AAA" stroke="#014AAA" stroke-width="1.4" stroke-linecap="round" stroke-linejoin="round"/>
</svg>
