<svg width="40" height="40" viewBox="0 0 40 40" fill="none" xmlns="http://www.w3.org/2000/svg">
<rect width="32" height="32" rx="16" transform="matrix(1 0 0 -1 4 36)" fill="#EB003B"/>
<path fill-rule="evenodd" clip-rule="evenodd" d="M21.5998 12.3208H18.3998V22.5608H21.5998V12.3208ZM18.6819 27.6427C19.0512 28.0063 19.4916 28.1881 20.0029 28.1881C20.3438 28.1881 20.6535 28.1057 20.9319 27.941C21.216 27.7705 21.4433 27.5432 21.6137 27.2592C21.7899 26.9751 21.8779 26.6597 21.8779 26.3131C21.8779 25.8018 21.6904 25.3643 21.3154 25.0006C20.9461 24.637 20.5086 24.4552 20.0029 24.4552C19.4916 24.4552 19.0512 24.637 18.6819 25.0006C18.3126 25.3643 18.1279 25.8018 18.1279 26.3131C18.1279 26.8359 18.3126 27.279 18.6819 27.6427Z" fill="white"/>
</svg>
