<svg width="24" height="24" viewBox="0 0 24 24" fill="none" xmlns="http://www.w3.org/2000/svg">
<path fill-rule="evenodd" clip-rule="evenodd" d="M7.7624 2.1001L7.8001 2.1001V3.0001V3.9001C6.94517 3.9001 6.3581 3.9008 5.90299 3.93798C5.45839 3.97431 5.21956 4.04091 5.04672 4.12898C4.65158 4.33032 4.33032 4.65158 4.12898 5.04672C4.04091 5.21956 3.97431 5.45839 3.93798 5.90299C3.9008 6.3581 3.9001 6.94517 3.9001 7.8001V16.2001C3.9001 17.055 3.9008 17.6421 3.93798 18.0972C3.97431 18.5418 4.04091 18.7806 4.12898 18.9535C4.33032 19.3486 4.65158 19.6699 5.04672 19.8712C5.21956 19.9593 5.45839 20.0259 5.90299 20.0622C6.3581 20.0994 6.94517 20.1001 7.8001 20.1001H16.2001C17.055 20.1001 17.6421 20.0994 18.0972 20.0622C18.5418 20.0259 18.7806 19.9593 18.9535 19.8712C19.3486 19.6699 19.6699 19.3486 19.8712 18.9535C19.9593 18.7806 20.0259 18.5418 20.0622 18.0972C20.0994 17.6421 20.1001 17.055 20.1001 16.2001V15.0001C20.1001 14.503 20.503 14.1001 21.0001 14.1001C21.4972 14.1001 21.9001 14.503 21.9001 15.0001V16.2378C21.9001 17.0459 21.9001 17.7067 21.8562 18.2438C21.8108 18.7997 21.7139 19.3018 21.475 19.7707C21.1011 20.5045 20.5045 21.1011 19.7707 21.475C19.3018 21.7139 18.7997 21.8108 18.2438 21.8562C17.7067 21.9001 17.0459 21.9001 16.2378 21.9001H7.76239C6.95434 21.9001 6.29349 21.9001 5.75642 21.8562C5.2005 21.8108 4.69842 21.7139 4.22954 21.475C3.4957 21.1011 2.89908 20.5045 2.52517 19.7707C2.28626 19.3018 2.18938 18.7997 2.14396 18.2438C2.10008 17.7067 2.10009 17.0459 2.1001 16.2378V7.7624C2.10009 6.95434 2.10008 6.29349 2.14396 5.75642C2.18938 5.2005 2.28626 4.69842 2.52517 4.22954C2.89908 3.4957 3.4957 2.89908 4.22954 2.52517C4.69842 2.28626 5.2005 2.18938 5.75642 2.14396C6.29349 2.10008 6.95434 2.10009 7.7624 2.1001ZM7.8001 3.0001V3.9001H8.99914C9.49619 3.9001 9.9001 3.49715 9.9001 3.0001C9.9001 2.50304 9.49715 2.1001 9.0001 2.1001H7.8001V3.0001ZM12.1001 3.00011C12.1001 2.50305 12.503 2.10011 13.0001 2.10011H21.0001C21.4971 2.10011 21.9001 2.50305 21.9001 3.00011L21.9001 11.0001C21.9001 11.4972 21.4971 11.9001 21.0001 11.9001C20.503 11.9001 20.1001 11.4972 20.1001 11.0001L20.1001 5.24641L11.1511 14.6215C10.8079 14.9811 10.2382 14.9943 9.87867 14.6511C9.51912 14.3079 9.50587 13.7382 9.84908 13.3787L18.8968 3.90011H13.0001C12.503 3.90011 12.1001 3.49716 12.1001 3.00011Z" fill="#2D2D2D"/>
</svg>
