<svg width="40" height="40" viewBox="0 0 40 40" fill="none" xmlns="http://www.w3.org/2000/svg">
<path d="M3 13H32M3 13V24.7336C3 26.2271 3 26.9734 3.28611 27.5438C3.53778 28.0456 3.93906 28.454 4.43298 28.7096C4.99395 29 9.72868 29 11.1959 29H23.8041C25.2713 29 30.005 29 30.566 28.7096C31.0599 28.454 31.4625 28.0456 31.7142 27.5438C32 26.974 32 26.2287 32 24.7381V13M3 13V11.9336C3 10.4401 3 9.69283 3.28611 9.1224C3.53778 8.62063 3.93906 8.21298 4.43298 7.95732C4.9945 7.66667 4.73012 7.66667 6.20026 7.66667H12.25H22.75H28.8003C30.2704 7.66667 30.0044 7.66667 30.566 7.95732C31.0599 8.21298 31.4625 8.62063 31.7142 9.1224C32 9.69227 32 10.4387 32 11.9292V13M8.25 4V6.33333V7.66667M26.25 4V6.33333V7.66667M7.5 18H10.25M14.5 18H17.25M7.5 23H10.25" stroke="black" stroke-width="1.6" stroke-linecap="round" stroke-linejoin="round"/>
<path d="M29 36C33.4183 36 37 32.4183 37 28C37 23.5817 33.4183 20 29 20C24.5817 20 21 23.5817 21 28C21 32.4183 24.5817 36 29 36Z" fill="url(#paint0_linear_6476_13072)"/>
<path d="M29 24.5V28.5H33" stroke="white" stroke-width="1.6" stroke-linecap="round"/>
<defs>
<linearGradient id="paint0_linear_6476_13072" x1="20.0448" y1="16.4" x2="36.0627" y2="23.4277" gradientUnits="userSpaceOnUse">
<stop stop-color="#00866B"/>
<stop offset="1" stop-color="#014AAA"/>
</linearGradient>
</defs>
</svg>
