<svg width="40" height="40" viewBox="0 0 40 40" fill="none" xmlns="http://www.w3.org/2000/svg">
<path d="M3 15H32M3 15V26.7336C3 28.2271 3 28.9734 3.28611 29.5438C3.53778 30.0456 3.93906 30.454 4.43298 30.7096C4.99395 31 9.72868 31 11.1959 31H23.8041C25.2713 31 30.005 31 30.566 30.7096C31.0599 30.454 31.4625 30.0456 31.7142 29.5438C32 28.974 32 28.2287 32 26.7381V15M3 15V13.9336C3 12.4401 3 11.6928 3.28611 11.1224C3.53778 10.6206 3.93906 10.213 4.43298 9.95732C4.9945 9.66667 4.73012 9.66667 6.20026 9.66667H12.25H22.75H28.8003C30.2704 9.66667 30.0044 9.66667 30.566 9.95732C31.0599 10.213 31.4625 10.6206 31.7142 11.1224C32 11.6923 32 12.4387 32 13.9292V15M8.25 6V8.33333V9.66667M26.25 6V8.33333V9.66667M7.5 20H10.25M14.5 20H17.25M7.5 25H10.25" stroke="black" stroke-width="1.6" stroke-linecap="round" stroke-linejoin="round"/>
<path d="M27.7148 22.1356C28.2978 21.1669 29.7022 21.1669 30.2852 22.1356L31.9639 24.925C32.1734 25.273 32.515 25.5212 32.9107 25.6129L36.0824 26.3475C37.1838 26.6026 37.6178 27.9383 36.8767 28.7921L34.7425 31.2506C34.4762 31.5573 34.3457 31.9589 34.3809 32.3636L34.6623 35.607C34.7601 36.7334 33.6239 37.5589 32.5828 37.1179L29.5851 35.8479C29.2111 35.6894 28.7889 35.6894 28.4149 35.8479L25.4172 37.1179C24.3761 37.5589 23.2399 36.7334 23.3377 35.607L23.6191 32.3636C23.6543 31.9589 23.5238 31.5573 23.2575 31.2506L21.1233 28.7921C20.3822 27.9383 20.8162 26.6026 21.9176 26.3475L25.0893 25.6129C25.485 25.5212 25.8266 25.273 26.0361 24.925L27.7148 22.1356Z" fill="url(#paint0_linear_6476_13177)"/>
<defs>
<linearGradient id="paint0_linear_6476_13177" x1="17.806" y1="15.5" x2="37.8284" y2="24.2847" gradientUnits="userSpaceOnUse">
<stop stop-color="#00866B"/>
<stop offset="1" stop-color="#014AAA"/>
</linearGradient>
</defs>
</svg>
