<svg width="40" height="40" viewBox="0 0 40 40" fill="none" xmlns="http://www.w3.org/2000/svg">
<path d="M30.625 20.1311C30.625 19.855 30.8489 19.6311 31.125 19.6311H31.8446C31.9458 19.6311 32.0446 19.6004 32.128 19.5431L35.697 17.0882C35.7804 17.0309 35.8792 17.0002 35.9803 17.0002L38.125 17C38.4011 17 38.625 17.2239 38.625 17.5L38.625 29.5C38.625 29.7761 38.4011 30 38.125 30H35.9804C35.8792 30 35.7804 29.9693 35.697 29.912L32.128 27.4571C32.0446 27.3998 31.9458 27.3691 31.8446 27.3691H31.125C30.8489 27.3691 30.625 27.1452 30.625 26.8691V20.1311Z" fill="url(#paint0_linear_6476_13116)"/>
<path d="M9.2002 15.7998H27.7002C28.3629 15.7998 28.9004 16.3373 28.9004 17V30C28.9004 30.6627 28.3629 31.2002 27.7002 31.2002H9.2002C8.53745 31.2002 8 30.6627 8 30V17C8 16.3373 8.53745 15.7998 9.2002 15.7998Z" stroke="black" stroke-width="1.6"/>
<path d="M11.333 20.001H12.464V25.9283H14.6218L14.5121 26.9976H11.333V20.001Z" fill="black"/>
<path d="M16.3312 20.001V26.9976H15.2002V20.001H16.3312Z" fill="black"/>
<path d="M18.4737 26.9971L16.9082 20.0005H18.1248L18.7025 22.9685C18.8853 23.8998 19.059 24.9362 19.1351 25.6667H19.1536C19.2292 24.9559 19.4605 23.91 19.6372 22.9943L20.196 20H21.377L19.7909 26.9966H18.4742L18.4737 26.9971Z" fill="black"/>
<path d="M25.0849 23.8876H23.0612V25.9192H25.3332L25.194 26.9976H21.9463V20.001H25.18V21.0976H23.0607V22.8006H25.0844V23.8881L25.0849 23.8876Z" fill="black"/>
<path d="M4.72665 16.3892C4.62225 14.3106 6.22476 12.6146 8.30597 12.6012M1.3663 15.6041C1.19229 12.1398 3.86315 9.31315 7.33183 9.29074" stroke="black" stroke-width="1.6" stroke-linecap="round" stroke-linejoin="round"/>
<defs>
<linearGradient id="paint0_linear_6476_13116" x1="30.1474" y1="14.075" x2="39.0491" y2="16.4784" gradientUnits="userSpaceOnUse">
<stop stop-color="#00866B"/>
<stop offset="1" stop-color="#014AAA"/>
</linearGradient>
</defs>
</svg>
