<svg width="40" height="40" viewBox="0 0 40 40" fill="none" xmlns="http://www.w3.org/2000/svg">
<mask id="path-1-outside-1_6476_13104" maskUnits="userSpaceOnUse" x="2" y="15" width="36" height="23" fill="black">
<rect fill="white" x="2" y="15" width="36" height="23"/>
<path d="M36.4692 19.8262L30.82 17.8734L30.2993 17.6862C29.9869 17.2314 29.2579 16.8837 27.9823 16.6162C27.9823 16.6162 27.748 16.5564 26.6806 16.4022C25.0145 16.1614 22.9058 16.0277 20.6669 16.0009C20.3984 15.998 20.2062 16.0009 19.3652 16.0277C17.1264 16.0277 15.0177 16.1882 13.3515 16.4557C13.011 16.4552 12.4404 16.6111 12.0498 16.6964C10.8263 16.9639 10.0973 17.2849 9.81097 17.7397L9.29031 17.9269L3.53692 19.8262C3.14642 19.96 2.93815 20.3612 3.01625 20.7625L5.25512 33.7899C5.41133 34.6995 6.08819 35.4217 6.97333 35.6357C9.23824 36.144 13.9503 37 19.964 37C25.9777 37 30.6898 36.144 32.9547 35.6357C33.8398 35.4485 34.5167 34.7262 34.6729 33.7899L36.8337 21.1102C36.8337 21.1102 36.9378 20.923 36.9638 20.8427C37.094 20.4147 36.8597 19.96 36.4692 19.8262ZM19.99 17.3652C24.65 17.3652 27.5918 17.8467 28.7112 18.248H28.6592C28.6071 18.248 28.529 18.3015 28.4509 18.3015C28.4249 18.3015 28.3728 18.3015 28.3468 18.3282C28.2687 18.3282 28.2166 18.355 28.1385 18.3817C28.0864 18.3817 28.0604 18.3817 28.0083 18.4085C27.9302 18.4085 27.8261 18.4352 27.748 18.462C27.6959 18.462 27.6699 18.462 27.6178 18.4887C27.3315 18.5422 27.0191 18.5957 26.6806 18.6492C26.6286 18.6492 26.5765 18.6492 26.5244 18.6492C26.3943 18.6492 26.2641 18.676 26.1339 18.7027C26.0558 18.7027 26.0038 18.7027 25.9257 18.7027C25.7955 18.7027 25.6393 18.7295 25.5091 18.7562C25.431 18.7562 25.3529 18.7562 25.3009 18.7562C25.1447 18.7562 24.9624 18.783 24.7802 18.8097C24.7281 18.8097 24.6761 18.8097 24.624 18.8097C24.3897 18.8097 24.1554 18.8365 23.8951 18.8632C23.843 18.8632 23.7649 18.8632 23.7128 18.8632C23.5046 18.8632 23.3223 18.8632 23.1141 18.89C23.0099 18.89 22.9318 18.89 22.8277 18.89C22.6455 18.89 22.4632 18.89 22.255 18.89C22.1508 18.89 22.0467 18.89 21.9426 18.89C21.7343 18.89 21.526 18.89 21.3178 18.89C21.2136 18.89 21.1355 18.89 21.0314 18.89C20.719 18.89 20.4066 18.89 20.0681 18.89C19.7297 18.89 19.4173 18.89 19.1049 18.89C19.0008 18.89 18.8966 18.89 18.8185 18.89C18.6103 18.89 18.402 18.89 18.1937 18.89C18.0896 18.89 17.9855 18.89 17.8813 18.89C17.6991 18.89 17.4908 18.89 17.3086 18.89C17.2045 18.89 17.1264 18.89 17.0222 18.89C16.814 18.89 16.6317 18.89 16.4235 18.8632C16.3454 18.8632 16.2933 18.8632 16.2152 18.8632C15.9549 18.8632 15.7206 18.8365 15.4863 18.8097C15.4602 18.8097 15.4082 18.8097 15.3821 18.8097C15.1739 18.8097 14.9916 18.783 14.8094 18.7562C14.7313 18.7562 14.6792 18.7562 14.6011 18.7562C14.4449 18.7562 14.3148 18.7295 14.1586 18.7027C14.1065 18.7027 14.0284 18.7027 13.9763 18.7027C13.8201 18.7027 13.69 18.676 13.5598 18.6492C13.5077 18.6492 13.4557 18.6492 13.4036 18.6492C13.2214 18.6492 13.0652 18.5957 12.909 18.569C12.7528 18.5422 12.5966 18.5155 12.4404 18.4887C12.4404 18.4887 12.4404 18.4887 12.4143 18.4887C12.2842 18.4887 12.18 18.4352 12.0498 18.4085C12.0498 18.4085 11.9978 18.4085 11.9718 18.4085C11.8676 18.4085 11.7895 18.355 11.6854 18.3282H11.6333C11.5292 18.3282 11.4511 18.2747 11.373 18.248C11.373 18.248 11.373 18.248 11.3469 18.248C12.4664 17.8467 15.3821 17.3652 20.0681 17.3652H19.99ZM7.23367 34.2982C6.8692 34.218 6.60886 33.9237 6.53076 33.5492L4.57826 22.1C5.80183 22.6083 7.62417 22.956 9.60271 23.2235L10.6961 34.9402C9.23824 34.7262 8.09277 34.4855 7.2597 34.2982H7.23367ZM19.3392 35.609C18.1937 35.609 17.1003 35.5555 16.059 35.502L15.5383 30.4996H19.3392V35.609ZM19.3392 29.1354H15.2259C14.9396 29.1354 14.6532 29.2691 14.4449 29.4831C14.2367 29.7239 14.1586 30.0181 14.1846 30.3124L14.7053 35.3682C13.742 35.288 12.8569 35.181 12.0238 35.074L10.9304 23.3038C14.3408 23.6515 17.8553 23.7318 19.3132 23.7318V29.0819L19.3392 29.1354ZM4.86462 20.816L9.57667 19.1842C9.73287 19.1842 9.91511 19.1307 10.0973 19.1307C10.1234 19.1307 10.1754 19.1842 10.2015 19.1842C10.2015 19.1842 10.2535 19.211 10.2796 19.2377C10.3316 19.2645 10.3837 19.2912 10.4358 19.318C10.4358 19.318 10.4878 19.318 10.5139 19.3447C10.6701 19.425 10.8523 19.4785 11.0606 19.5587C11.0866 19.5587 11.1126 19.5587 11.1387 19.5855C11.2168 19.5855 11.2949 19.639 11.3469 19.6657C11.373 19.6657 11.425 19.6657 11.4771 19.6925C11.5552 19.6925 11.6073 19.7192 11.6854 19.746C11.7374 19.746 11.7895 19.746 11.8155 19.7727C11.8937 19.7727 11.9457 19.7995 12.0238 19.8262C12.0759 19.8262 12.128 19.8262 12.18 19.853C12.2581 19.853 12.3102 19.8797 12.3883 19.9065C12.4404 19.9065 12.4924 19.9065 12.5445 19.9332C12.6226 19.9332 12.7007 19.9332 12.7528 19.96C12.8048 19.96 12.8569 19.96 12.909 19.9867C12.9871 19.9867 13.0652 19.9867 13.1433 20.0135C13.1953 20.0135 13.2474 20.0135 13.2995 20.0135C13.3776 20.0135 13.4557 20.0135 13.5338 20.0402C13.5858 20.0402 13.6379 20.0402 13.716 20.0402C13.7941 20.0402 13.8722 20.0402 13.9503 20.067C14.0024 20.067 14.0544 20.067 14.1325 20.067C14.2106 20.067 14.3148 20.067 14.3929 20.0937C14.4449 20.0937 14.497 20.0937 14.5491 20.0937C14.6272 20.0937 14.7313 20.0937 14.8094 20.0937C14.8615 20.0937 14.9135 20.0937 14.9656 20.0937C15.0697 20.0937 15.1478 20.0937 15.252 20.0937H15.3821C15.3821 20.0937 15.6164 20.1205 15.7466 20.1205H15.7987C15.9288 20.1205 16.085 20.1205 16.2152 20.1472C16.2152 20.1472 16.2412 20.1472 16.2673 20.1472C16.3974 20.1472 16.5016 20.1472 16.6317 20.1472C16.6838 20.1472 16.7098 20.1472 16.7619 20.1472C16.84 20.1472 16.9441 20.1472 17.0222 20.1472C17.0743 20.1472 17.1264 20.1472 17.1784 20.1472C17.2565 20.1472 17.3346 20.1472 17.4127 20.1472C17.4648 20.1472 17.5169 20.1472 17.5689 20.1472C17.647 20.1472 17.6991 20.1472 17.7772 20.1472C17.8293 20.1472 17.8813 20.1472 17.9334 20.1472C18.0115 20.1472 18.0636 20.1472 18.1417 20.1472C18.1937 20.1472 18.2458 20.1472 18.2979 20.1472C18.3499 20.1472 18.428 20.1472 18.4801 20.1472C18.5322 20.1472 18.5582 20.1472 18.6103 20.1472C18.6623 20.1472 18.7144 20.1472 18.7925 20.1472C18.8446 20.1472 18.8706 20.1472 18.9227 20.1472C18.9747 20.1472 19.0268 20.1472 19.0789 20.1472C19.1309 20.1472 19.157 20.1472 19.209 20.1472C19.2611 20.1472 19.2871 20.1472 19.3392 20.1472C19.3652 20.1472 19.4173 20.1472 19.4433 20.1472C19.4954 20.1472 19.5214 20.1472 19.5735 20.1472C19.5735 20.1472 19.6256 20.1472 19.6516 20.1472C19.7037 20.1472 19.7297 20.1472 19.7818 20.1472H19.8338C19.8599 20.1472 19.8859 20.1472 19.9119 20.1472H19.964H20.1723C20.1723 20.1472 20.1983 20.1472 20.2243 20.1472C20.2504 20.1472 20.2764 20.1472 20.3024 20.1472H20.3545C20.3805 20.1472 20.4326 20.1472 20.4847 20.1472C20.4847 20.1472 20.5367 20.1472 20.5628 20.1472C20.6148 20.1472 20.6409 20.1472 20.6929 20.1472C20.719 20.1472 20.745 20.1472 20.7971 20.1472C20.8491 20.1472 20.9012 20.1472 20.9533 20.1472C20.9793 20.1472 21.0053 20.1472 21.0574 20.1472C21.1095 20.1472 21.1616 20.1472 21.2397 20.1472C21.2657 20.1472 21.3178 20.1472 21.3438 20.1472C21.3959 20.1472 21.474 20.1472 21.526 20.1472C21.5521 20.1472 21.6041 20.1472 21.6562 20.1472C21.7083 20.1472 21.7864 20.1472 21.8645 20.1472C21.9165 20.1472 21.9426 20.1472 21.9946 20.1472C22.0727 20.1472 22.1508 20.1472 22.2289 20.1472C22.281 20.1472 22.307 20.1472 22.3591 20.1472C22.4372 20.1472 22.5413 20.1472 22.6194 20.1472C22.6455 20.1472 22.6975 20.1472 22.7236 20.1472C22.8277 20.1472 22.9318 20.1472 23.036 20.1472C23.036 20.1472 23.088 20.1472 23.1141 20.1472C23.2442 20.1472 23.3744 20.1472 23.5046 20.1472C24.0513 20.1205 24.624 20.067 25.1967 20.0135C25.1967 20.0135 25.1967 20.0135 25.2228 20.0135C25.3529 20.0135 25.4831 20.0135 25.6133 19.9867H25.6653C25.6653 19.9867 25.8996 19.96 26.0298 19.9332C26.0298 19.9332 26.0819 19.9332 26.1079 19.9332C26.212 19.9332 26.3422 19.9065 26.4463 19.8797C26.4724 19.8797 26.4984 19.8797 26.5244 19.8797C26.6286 19.8797 26.7587 19.853 26.8629 19.8262C26.8889 19.8262 26.9149 19.8262 26.941 19.8262C27.0451 19.8262 27.1492 19.7995 27.2794 19.7727H27.3575C27.3575 19.7727 27.5658 19.7192 27.6699 19.6925C27.6699 19.6925 27.722 19.6925 27.748 19.6925C27.8521 19.6925 27.9563 19.639 28.0604 19.639C28.0604 19.639 28.0864 19.639 28.1125 19.639C28.2166 19.639 28.3207 19.5855 28.4249 19.5587C28.4249 19.5587 28.4249 19.5587 28.4509 19.5587C29.0236 19.425 29.5443 19.2377 29.8827 19.0237C29.8827 19.0237 29.8828 19.0237 29.9088 19.0237C29.9609 18.997 30.0129 18.9702 30.039 18.9435C30.2212 18.9435 30.3774 18.997 30.5596 18.997L35.2456 20.602C33.4493 21.3777 28.0083 22.2338 20.1202 22.2338C12.2321 22.2338 6.73903 21.351 4.96876 20.602L4.86462 20.816ZM24.0513 35.4752C22.9839 35.5555 21.8384 35.5822 20.6409 35.609V30.4996H24.5719L24.0513 35.4752ZM28.0864 35.1007C27.2534 35.2077 26.3682 35.3147 25.405 35.395L25.9257 30.3391C25.9517 30.0449 25.8736 29.7239 25.6653 29.5099C25.4571 29.2691 25.1707 29.1621 24.8843 29.1621H20.6669V23.812C22.1248 23.812 25.7174 23.705 29.1798 23.3573L28.0864 35.1007ZM33.3712 33.5492C33.3192 33.9237 33.0328 34.218 32.6683 34.2982C31.8873 34.4855 30.7939 34.6995 29.4402 34.9135L30.5076 23.1968C32.382 22.956 34.1002 22.6083 35.3237 22.1268L33.3712 33.5492Z"/>
</mask>
<path d="M36.4692 19.8262L30.82 17.8734L30.2993 17.6862C29.9869 17.2314 29.2579 16.8837 27.9823 16.6162C27.9823 16.6162 27.748 16.5564 26.6806 16.4022C25.0145 16.1614 22.9058 16.0277 20.6669 16.0009C20.3984 15.998 20.2062 16.0009 19.3652 16.0277C17.1264 16.0277 15.0177 16.1882 13.3515 16.4557C13.011 16.4552 12.4404 16.6111 12.0498 16.6964C10.8263 16.9639 10.0973 17.2849 9.81097 17.7397L9.29031 17.9269L3.53692 19.8262C3.14642 19.96 2.93815 20.3612 3.01625 20.7625L5.25512 33.7899C5.41133 34.6995 6.08819 35.4217 6.97333 35.6357C9.23824 36.144 13.9503 37 19.964 37C25.9777 37 30.6898 36.144 32.9547 35.6357C33.8398 35.4485 34.5167 34.7262 34.6729 33.7899L36.8337 21.1102C36.8337 21.1102 36.9378 20.923 36.9638 20.8427C37.094 20.4147 36.8597 19.96 36.4692 19.8262ZM19.99 17.3652C24.65 17.3652 27.5918 17.8467 28.7112 18.248H28.6592C28.6071 18.248 28.529 18.3015 28.4509 18.3015C28.4249 18.3015 28.3728 18.3015 28.3468 18.3282C28.2687 18.3282 28.2166 18.355 28.1385 18.3817C28.0864 18.3817 28.0604 18.3817 28.0083 18.4085C27.9302 18.4085 27.8261 18.4352 27.748 18.462C27.6959 18.462 27.6699 18.462 27.6178 18.4887C27.3315 18.5422 27.0191 18.5957 26.6806 18.6492C26.6286 18.6492 26.5765 18.6492 26.5244 18.6492C26.3943 18.6492 26.2641 18.676 26.1339 18.7027C26.0558 18.7027 26.0038 18.7027 25.9257 18.7027C25.7955 18.7027 25.6393 18.7295 25.5091 18.7562C25.431 18.7562 25.3529 18.7562 25.3009 18.7562C25.1447 18.7562 24.9624 18.783 24.7802 18.8097C24.7281 18.8097 24.6761 18.8097 24.624 18.8097C24.3897 18.8097 24.1554 18.8365 23.8951 18.8632C23.843 18.8632 23.7649 18.8632 23.7128 18.8632C23.5046 18.8632 23.3223 18.8632 23.1141 18.89C23.0099 18.89 22.9318 18.89 22.8277 18.89C22.6455 18.89 22.4632 18.89 22.255 18.89C22.1508 18.89 22.0467 18.89 21.9426 18.89C21.7343 18.89 21.526 18.89 21.3178 18.89C21.2136 18.89 21.1355 18.89 21.0314 18.89C20.719 18.89 20.4066 18.89 20.0681 18.89C19.7297 18.89 19.4173 18.89 19.1049 18.89C19.0008 18.89 18.8966 18.89 18.8185 18.89C18.6103 18.89 18.402 18.89 18.1937 18.89C18.0896 18.89 17.9855 18.89 17.8813 18.89C17.6991 18.89 17.4908 18.89 17.3086 18.89C17.2045 18.89 17.1264 18.89 17.0222 18.89C16.814 18.89 16.6317 18.89 16.4235 18.8632C16.3454 18.8632 16.2933 18.8632 16.2152 18.8632C15.9549 18.8632 15.7206 18.8365 15.4863 18.8097C15.4602 18.8097 15.4082 18.8097 15.3821 18.8097C15.1739 18.8097 14.9916 18.783 14.8094 18.7562C14.7313 18.7562 14.6792 18.7562 14.6011 18.7562C14.4449 18.7562 14.3148 18.7295 14.1586 18.7027C14.1065 18.7027 14.0284 18.7027 13.9763 18.7027C13.8201 18.7027 13.69 18.676 13.5598 18.6492C13.5077 18.6492 13.4557 18.6492 13.4036 18.6492C13.2214 18.6492 13.0652 18.5957 12.909 18.569C12.7528 18.5422 12.5966 18.5155 12.4404 18.4887C12.4404 18.4887 12.4404 18.4887 12.4143 18.4887C12.2842 18.4887 12.18 18.4352 12.0498 18.4085C12.0498 18.4085 11.9978 18.4085 11.9718 18.4085C11.8676 18.4085 11.7895 18.355 11.6854 18.3282H11.6333C11.5292 18.3282 11.4511 18.2747 11.373 18.248C11.373 18.248 11.373 18.248 11.3469 18.248C12.4664 17.8467 15.3821 17.3652 20.0681 17.3652H19.99ZM7.23367 34.2982C6.8692 34.218 6.60886 33.9237 6.53076 33.5492L4.57826 22.1C5.80183 22.6083 7.62417 22.956 9.60271 23.2235L10.6961 34.9402C9.23824 34.7262 8.09277 34.4855 7.2597 34.2982H7.23367ZM19.3392 35.609C18.1937 35.609 17.1003 35.5555 16.059 35.502L15.5383 30.4996H19.3392V35.609ZM19.3392 29.1354H15.2259C14.9396 29.1354 14.6532 29.2691 14.4449 29.4831C14.2367 29.7239 14.1586 30.0181 14.1846 30.3124L14.7053 35.3682C13.742 35.288 12.8569 35.181 12.0238 35.074L10.9304 23.3038C14.3408 23.6515 17.8553 23.7318 19.3132 23.7318V29.0819L19.3392 29.1354ZM4.86462 20.816L9.57667 19.1842C9.73287 19.1842 9.91511 19.1307 10.0973 19.1307C10.1234 19.1307 10.1754 19.1842 10.2015 19.1842C10.2015 19.1842 10.2535 19.211 10.2796 19.2377C10.3316 19.2645 10.3837 19.2912 10.4358 19.318C10.4358 19.318 10.4878 19.318 10.5139 19.3447C10.6701 19.425 10.8523 19.4785 11.0606 19.5587C11.0866 19.5587 11.1126 19.5587 11.1387 19.5855C11.2168 19.5855 11.2949 19.639 11.3469 19.6657C11.373 19.6657 11.425 19.6657 11.4771 19.6925C11.5552 19.6925 11.6073 19.7192 11.6854 19.746C11.7374 19.746 11.7895 19.746 11.8155 19.7727C11.8937 19.7727 11.9457 19.7995 12.0238 19.8262C12.0759 19.8262 12.128 19.8262 12.18 19.853C12.2581 19.853 12.3102 19.8797 12.3883 19.9065C12.4404 19.9065 12.4924 19.9065 12.5445 19.9332C12.6226 19.9332 12.7007 19.9332 12.7528 19.96C12.8048 19.96 12.8569 19.96 12.909 19.9867C12.9871 19.9867 13.0652 19.9867 13.1433 20.0135C13.1953 20.0135 13.2474 20.0135 13.2995 20.0135C13.3776 20.0135 13.4557 20.0135 13.5338 20.0402C13.5858 20.0402 13.6379 20.0402 13.716 20.0402C13.7941 20.0402 13.8722 20.0402 13.9503 20.067C14.0024 20.067 14.0544 20.067 14.1325 20.067C14.2106 20.067 14.3148 20.067 14.3929 20.0937C14.4449 20.0937 14.497 20.0937 14.5491 20.0937C14.6272 20.0937 14.7313 20.0937 14.8094 20.0937C14.8615 20.0937 14.9135 20.0937 14.9656 20.0937C15.0697 20.0937 15.1478 20.0937 15.252 20.0937H15.3821C15.3821 20.0937 15.6164 20.1205 15.7466 20.1205H15.7987C15.9288 20.1205 16.085 20.1205 16.2152 20.1472C16.2152 20.1472 16.2412 20.1472 16.2673 20.1472C16.3974 20.1472 16.5016 20.1472 16.6317 20.1472C16.6838 20.1472 16.7098 20.1472 16.7619 20.1472C16.84 20.1472 16.9441 20.1472 17.0222 20.1472C17.0743 20.1472 17.1264 20.1472 17.1784 20.1472C17.2565 20.1472 17.3346 20.1472 17.4127 20.1472C17.4648 20.1472 17.5169 20.1472 17.5689 20.1472C17.647 20.1472 17.6991 20.1472 17.7772 20.1472C17.8293 20.1472 17.8813 20.1472 17.9334 20.1472C18.0115 20.1472 18.0636 20.1472 18.1417 20.1472C18.1937 20.1472 18.2458 20.1472 18.2979 20.1472C18.3499 20.1472 18.428 20.1472 18.4801 20.1472C18.5322 20.1472 18.5582 20.1472 18.6103 20.1472C18.6623 20.1472 18.7144 20.1472 18.7925 20.1472C18.8446 20.1472 18.8706 20.1472 18.9227 20.1472C18.9747 20.1472 19.0268 20.1472 19.0789 20.1472C19.1309 20.1472 19.157 20.1472 19.209 20.1472C19.2611 20.1472 19.2871 20.1472 19.3392 20.1472C19.3652 20.1472 19.4173 20.1472 19.4433 20.1472C19.4954 20.1472 19.5214 20.1472 19.5735 20.1472C19.5735 20.1472 19.6256 20.1472 19.6516 20.1472C19.7037 20.1472 19.7297 20.1472 19.7818 20.1472H19.8338C19.8599 20.1472 19.8859 20.1472 19.9119 20.1472H19.964H20.1723C20.1723 20.1472 20.1983 20.1472 20.2243 20.1472C20.2504 20.1472 20.2764 20.1472 20.3024 20.1472H20.3545C20.3805 20.1472 20.4326 20.1472 20.4847 20.1472C20.4847 20.1472 20.5367 20.1472 20.5628 20.1472C20.6148 20.1472 20.6409 20.1472 20.6929 20.1472C20.719 20.1472 20.745 20.1472 20.7971 20.1472C20.8491 20.1472 20.9012 20.1472 20.9533 20.1472C20.9793 20.1472 21.0053 20.1472 21.0574 20.1472C21.1095 20.1472 21.1616 20.1472 21.2397 20.1472C21.2657 20.1472 21.3178 20.1472 21.3438 20.1472C21.3959 20.1472 21.474 20.1472 21.526 20.1472C21.5521 20.1472 21.6041 20.1472 21.6562 20.1472C21.7083 20.1472 21.7864 20.1472 21.8645 20.1472C21.9165 20.1472 21.9426 20.1472 21.9946 20.1472C22.0727 20.1472 22.1508 20.1472 22.2289 20.1472C22.281 20.1472 22.307 20.1472 22.3591 20.1472C22.4372 20.1472 22.5413 20.1472 22.6194 20.1472C22.6455 20.1472 22.6975 20.1472 22.7236 20.1472C22.8277 20.1472 22.9318 20.1472 23.036 20.1472C23.036 20.1472 23.088 20.1472 23.1141 20.1472C23.2442 20.1472 23.3744 20.1472 23.5046 20.1472C24.0513 20.1205 24.624 20.067 25.1967 20.0135C25.1967 20.0135 25.1967 20.0135 25.2228 20.0135C25.3529 20.0135 25.4831 20.0135 25.6133 19.9867H25.6653C25.6653 19.9867 25.8996 19.96 26.0298 19.9332C26.0298 19.9332 26.0819 19.9332 26.1079 19.9332C26.212 19.9332 26.3422 19.9065 26.4463 19.8797C26.4724 19.8797 26.4984 19.8797 26.5244 19.8797C26.6286 19.8797 26.7587 19.853 26.8629 19.8262C26.8889 19.8262 26.9149 19.8262 26.941 19.8262C27.0451 19.8262 27.1492 19.7995 27.2794 19.7727H27.3575C27.3575 19.7727 27.5658 19.7192 27.6699 19.6925C27.6699 19.6925 27.722 19.6925 27.748 19.6925C27.8521 19.6925 27.9563 19.639 28.0604 19.639C28.0604 19.639 28.0864 19.639 28.1125 19.639C28.2166 19.639 28.3207 19.5855 28.4249 19.5587C28.4249 19.5587 28.4249 19.5587 28.4509 19.5587C29.0236 19.425 29.5443 19.2377 29.8827 19.0237C29.8827 19.0237 29.8828 19.0237 29.9088 19.0237C29.9609 18.997 30.0129 18.9702 30.039 18.9435C30.2212 18.9435 30.3774 18.997 30.5596 18.997L35.2456 20.602C33.4493 21.3777 28.0083 22.2338 20.1202 22.2338C12.2321 22.2338 6.73903 21.351 4.96876 20.602L4.86462 20.816ZM24.0513 35.4752C22.9839 35.5555 21.8384 35.5822 20.6409 35.609V30.4996H24.5719L24.0513 35.4752ZM28.0864 35.1007C27.2534 35.2077 26.3682 35.3147 25.405 35.395L25.9257 30.3391C25.9517 30.0449 25.8736 29.7239 25.6653 29.5099C25.4571 29.2691 25.1707 29.1621 24.8843 29.1621H20.6669V23.812C22.1248 23.812 25.7174 23.705 29.1798 23.3573L28.0864 35.1007ZM33.3712 33.5492C33.3192 33.9237 33.0328 34.218 32.6683 34.2982C31.8873 34.4855 30.7939 34.6995 29.4402 34.9135L30.5076 23.1968C32.382 22.956 34.1002 22.6083 35.3237 22.1268L33.3712 33.5492Z" fill="black"/>
<path d="M36.4692 19.8262L30.82 17.8734L30.2993 17.6862C29.9869 17.2314 29.2579 16.8837 27.9823 16.6162C27.9823 16.6162 27.748 16.5564 26.6806 16.4022C25.0145 16.1614 22.9058 16.0277 20.6669 16.0009C20.3984 15.998 20.2062 16.0009 19.3652 16.0277C17.1264 16.0277 15.0177 16.1882 13.3515 16.4557C13.011 16.4552 12.4404 16.6111 12.0498 16.6964C10.8263 16.9639 10.0973 17.2849 9.81097 17.7397L9.29031 17.9269L3.53692 19.8262C3.14642 19.96 2.93815 20.3612 3.01625 20.7625L5.25512 33.7899C5.41133 34.6995 6.08819 35.4217 6.97333 35.6357C9.23824 36.144 13.9503 37 19.964 37C25.9777 37 30.6898 36.144 32.9547 35.6357C33.8398 35.4485 34.5167 34.7262 34.6729 33.7899L36.8337 21.1102C36.8337 21.1102 36.9378 20.923 36.9638 20.8427C37.094 20.4147 36.8597 19.96 36.4692 19.8262ZM19.99 17.3652C24.65 17.3652 27.5918 17.8467 28.7112 18.248H28.6592C28.6071 18.248 28.529 18.3015 28.4509 18.3015C28.4249 18.3015 28.3728 18.3015 28.3468 18.3282C28.2687 18.3282 28.2166 18.355 28.1385 18.3817C28.0864 18.3817 28.0604 18.3817 28.0083 18.4085C27.9302 18.4085 27.8261 18.4352 27.748 18.462C27.6959 18.462 27.6699 18.462 27.6178 18.4887C27.3315 18.5422 27.0191 18.5957 26.6806 18.6492C26.6286 18.6492 26.5765 18.6492 26.5244 18.6492C26.3943 18.6492 26.2641 18.676 26.1339 18.7027C26.0558 18.7027 26.0038 18.7027 25.9257 18.7027C25.7955 18.7027 25.6393 18.7295 25.5091 18.7562C25.431 18.7562 25.3529 18.7562 25.3009 18.7562C25.1447 18.7562 24.9624 18.783 24.7802 18.8097C24.7281 18.8097 24.6761 18.8097 24.624 18.8097C24.3897 18.8097 24.1554 18.8365 23.8951 18.8632C23.843 18.8632 23.7649 18.8632 23.7128 18.8632C23.5046 18.8632 23.3223 18.8632 23.1141 18.89C23.0099 18.89 22.9318 18.89 22.8277 18.89C22.6455 18.89 22.4632 18.89 22.255 18.89C22.1508 18.89 22.0467 18.89 21.9426 18.89C21.7343 18.89 21.526 18.89 21.3178 18.89C21.2136 18.89 21.1355 18.89 21.0314 18.89C20.719 18.89 20.4066 18.89 20.0681 18.89C19.7297 18.89 19.4173 18.89 19.1049 18.89C19.0008 18.89 18.8966 18.89 18.8185 18.89C18.6103 18.89 18.402 18.89 18.1937 18.89C18.0896 18.89 17.9855 18.89 17.8813 18.89C17.6991 18.89 17.4908 18.89 17.3086 18.89C17.2045 18.89 17.1264 18.89 17.0222 18.89C16.814 18.89 16.6317 18.89 16.4235 18.8632C16.3454 18.8632 16.2933 18.8632 16.2152 18.8632C15.9549 18.8632 15.7206 18.8365 15.4863 18.8097C15.4602 18.8097 15.4082 18.8097 15.3821 18.8097C15.1739 18.8097 14.9916 18.783 14.8094 18.7562C14.7313 18.7562 14.6792 18.7562 14.6011 18.7562C14.4449 18.7562 14.3148 18.7295 14.1586 18.7027C14.1065 18.7027 14.0284 18.7027 13.9763 18.7027C13.8201 18.7027 13.69 18.676 13.5598 18.6492C13.5077 18.6492 13.4557 18.6492 13.4036 18.6492C13.2214 18.6492 13.0652 18.5957 12.909 18.569C12.7528 18.5422 12.5966 18.5155 12.4404 18.4887C12.4404 18.4887 12.4404 18.4887 12.4143 18.4887C12.2842 18.4887 12.18 18.4352 12.0498 18.4085C12.0498 18.4085 11.9978 18.4085 11.9718 18.4085C11.8676 18.4085 11.7895 18.355 11.6854 18.3282H11.6333C11.5292 18.3282 11.4511 18.2747 11.373 18.248C11.373 18.248 11.373 18.248 11.3469 18.248C12.4664 17.8467 15.3821 17.3652 20.0681 17.3652H19.99ZM7.23367 34.2982C6.8692 34.218 6.60886 33.9237 6.53076 33.5492L4.57826 22.1C5.80183 22.6083 7.62417 22.956 9.60271 23.2235L10.6961 34.9402C9.23824 34.7262 8.09277 34.4855 7.2597 34.2982H7.23367ZM19.3392 35.609C18.1937 35.609 17.1003 35.5555 16.059 35.502L15.5383 30.4996H19.3392V35.609ZM19.3392 29.1354H15.2259C14.9396 29.1354 14.6532 29.2691 14.4449 29.4831C14.2367 29.7239 14.1586 30.0181 14.1846 30.3124L14.7053 35.3682C13.742 35.288 12.8569 35.181 12.0238 35.074L10.9304 23.3038C14.3408 23.6515 17.8553 23.7318 19.3132 23.7318V29.0819L19.3392 29.1354ZM4.86462 20.816L9.57667 19.1842C9.73287 19.1842 9.91511 19.1307 10.0973 19.1307C10.1234 19.1307 10.1754 19.1842 10.2015 19.1842C10.2015 19.1842 10.2535 19.211 10.2796 19.2377C10.3316 19.2645 10.3837 19.2912 10.4358 19.318C10.4358 19.318 10.4878 19.318 10.5139 19.3447C10.6701 19.425 10.8523 19.4785 11.0606 19.5587C11.0866 19.5587 11.1126 19.5587 11.1387 19.5855C11.2168 19.5855 11.2949 19.639 11.3469 19.6657C11.373 19.6657 11.425 19.6657 11.4771 19.6925C11.5552 19.6925 11.6073 19.7192 11.6854 19.746C11.7374 19.746 11.7895 19.746 11.8155 19.7727C11.8937 19.7727 11.9457 19.7995 12.0238 19.8262C12.0759 19.8262 12.128 19.8262 12.18 19.853C12.2581 19.853 12.3102 19.8797 12.3883 19.9065C12.4404 19.9065 12.4924 19.9065 12.5445 19.9332C12.6226 19.9332 12.7007 19.9332 12.7528 19.96C12.8048 19.96 12.8569 19.96 12.909 19.9867C12.9871 19.9867 13.0652 19.9867 13.1433 20.0135C13.1953 20.0135 13.2474 20.0135 13.2995 20.0135C13.3776 20.0135 13.4557 20.0135 13.5338 20.0402C13.5858 20.0402 13.6379 20.0402 13.716 20.0402C13.7941 20.0402 13.8722 20.0402 13.9503 20.067C14.0024 20.067 14.0544 20.067 14.1325 20.067C14.2106 20.067 14.3148 20.067 14.3929 20.0937C14.4449 20.0937 14.497 20.0937 14.5491 20.0937C14.6272 20.0937 14.7313 20.0937 14.8094 20.0937C14.8615 20.0937 14.9135 20.0937 14.9656 20.0937C15.0697 20.0937 15.1478 20.0937 15.252 20.0937H15.3821C15.3821 20.0937 15.6164 20.1205 15.7466 20.1205H15.7987C15.9288 20.1205 16.085 20.1205 16.2152 20.1472C16.2152 20.1472 16.2412 20.1472 16.2673 20.1472C16.3974 20.1472 16.5016 20.1472 16.6317 20.1472C16.6838 20.1472 16.7098 20.1472 16.7619 20.1472C16.84 20.1472 16.9441 20.1472 17.0222 20.1472C17.0743 20.1472 17.1264 20.1472 17.1784 20.1472C17.2565 20.1472 17.3346 20.1472 17.4127 20.1472C17.4648 20.1472 17.5169 20.1472 17.5689 20.1472C17.647 20.1472 17.6991 20.1472 17.7772 20.1472C17.8293 20.1472 17.8813 20.1472 17.9334 20.1472C18.0115 20.1472 18.0636 20.1472 18.1417 20.1472C18.1937 20.1472 18.2458 20.1472 18.2979 20.1472C18.3499 20.1472 18.428 20.1472 18.4801 20.1472C18.5322 20.1472 18.5582 20.1472 18.6103 20.1472C18.6623 20.1472 18.7144 20.1472 18.7925 20.1472C18.8446 20.1472 18.8706 20.1472 18.9227 20.1472C18.9747 20.1472 19.0268 20.1472 19.0789 20.1472C19.1309 20.1472 19.157 20.1472 19.209 20.1472C19.2611 20.1472 19.2871 20.1472 19.3392 20.1472C19.3652 20.1472 19.4173 20.1472 19.4433 20.1472C19.4954 20.1472 19.5214 20.1472 19.5735 20.1472C19.5735 20.1472 19.6256 20.1472 19.6516 20.1472C19.7037 20.1472 19.7297 20.1472 19.7818 20.1472H19.8338C19.8599 20.1472 19.8859 20.1472 19.9119 20.1472H19.964H20.1723C20.1723 20.1472 20.1983 20.1472 20.2243 20.1472C20.2504 20.1472 20.2764 20.1472 20.3024 20.1472H20.3545C20.3805 20.1472 20.4326 20.1472 20.4847 20.1472C20.4847 20.1472 20.5367 20.1472 20.5628 20.1472C20.6148 20.1472 20.6409 20.1472 20.6929 20.1472C20.719 20.1472 20.745 20.1472 20.7971 20.1472C20.8491 20.1472 20.9012 20.1472 20.9533 20.1472C20.9793 20.1472 21.0053 20.1472 21.0574 20.1472C21.1095 20.1472 21.1616 20.1472 21.2397 20.1472C21.2657 20.1472 21.3178 20.1472 21.3438 20.1472C21.3959 20.1472 21.474 20.1472 21.526 20.1472C21.5521 20.1472 21.6041 20.1472 21.6562 20.1472C21.7083 20.1472 21.7864 20.1472 21.8645 20.1472C21.9165 20.1472 21.9426 20.1472 21.9946 20.1472C22.0727 20.1472 22.1508 20.1472 22.2289 20.1472C22.281 20.1472 22.307 20.1472 22.3591 20.1472C22.4372 20.1472 22.5413 20.1472 22.6194 20.1472C22.6455 20.1472 22.6975 20.1472 22.7236 20.1472C22.8277 20.1472 22.9318 20.1472 23.036 20.1472C23.036 20.1472 23.088 20.1472 23.1141 20.1472C23.2442 20.1472 23.3744 20.1472 23.5046 20.1472C24.0513 20.1205 24.624 20.067 25.1967 20.0135C25.1967 20.0135 25.1967 20.0135 25.2228 20.0135C25.3529 20.0135 25.4831 20.0135 25.6133 19.9867H25.6653C25.6653 19.9867 25.8996 19.96 26.0298 19.9332C26.0298 19.9332 26.0819 19.9332 26.1079 19.9332C26.212 19.9332 26.3422 19.9065 26.4463 19.8797C26.4724 19.8797 26.4984 19.8797 26.5244 19.8797C26.6286 19.8797 26.7587 19.853 26.8629 19.8262C26.8889 19.8262 26.9149 19.8262 26.941 19.8262C27.0451 19.8262 27.1492 19.7995 27.2794 19.7727H27.3575C27.3575 19.7727 27.5658 19.7192 27.6699 19.6925C27.6699 19.6925 27.722 19.6925 27.748 19.6925C27.8521 19.6925 27.9563 19.639 28.0604 19.639C28.0604 19.639 28.0864 19.639 28.1125 19.639C28.2166 19.639 28.3207 19.5855 28.4249 19.5587C28.4249 19.5587 28.4249 19.5587 28.4509 19.5587C29.0236 19.425 29.5443 19.2377 29.8827 19.0237C29.8827 19.0237 29.8828 19.0237 29.9088 19.0237C29.9609 18.997 30.0129 18.9702 30.039 18.9435C30.2212 18.9435 30.3774 18.997 30.5596 18.997L35.2456 20.602C33.4493 21.3777 28.0083 22.2338 20.1202 22.2338C12.2321 22.2338 6.73903 21.351 4.96876 20.602L4.86462 20.816ZM24.0513 35.4752C22.9839 35.5555 21.8384 35.5822 20.6409 35.609V30.4996H24.5719L24.0513 35.4752ZM28.0864 35.1007C27.2534 35.2077 26.3682 35.3147 25.405 35.395L25.9257 30.3391C25.9517 30.0449 25.8736 29.7239 25.6653 29.5099C25.4571 29.2691 25.1707 29.1621 24.8843 29.1621H20.6669V23.812C22.1248 23.812 25.7174 23.705 29.1798 23.3573L28.0864 35.1007ZM33.3712 33.5492C33.3192 33.9237 33.0328 34.218 32.6683 34.2982C31.8873 34.4855 30.7939 34.6995 29.4402 34.9135L30.5076 23.1968C32.382 22.956 34.1002 22.6083 35.3237 22.1268L33.3712 33.5492Z" stroke="black" stroke-width="0.3" mask="url(#path-1-outside-1_6476_13104)"/>
<path d="M19.7002 16.5V8.5" stroke="black" stroke-width="1.6"/>
<path d="M28.4154 4.76799L19.1563 2.07443C19.0283 2.03721 18.9004 2.1332 18.9004 2.26647V9.67376C18.9004 9.82307 19.0581 9.91973 19.1911 9.85199L28.4502 5.13826C28.6117 5.05604 28.5894 4.81861 28.4154 4.76799Z" fill="url(#paint0_linear_6476_13104)"/>
<path d="M10.7002 18V13.5M10.7002 13.5V10.305C10.7002 10.161 10.8479 10.0642 10.9799 10.1216L14.281 11.5569C14.4409 11.6264 14.4414 11.853 14.2818 11.9233L10.7002 13.5Z" stroke="black" stroke-width="1.4"/>
<path d="M28.4004 18V13.5M28.4004 13.5V10.305C28.4004 10.161 28.548 10.0642 28.6801 10.1216L31.9812 11.5569C32.1411 11.6264 32.1416 11.853 31.982 11.9233L28.4004 13.5Z" stroke="black" stroke-width="1.4"/>
<path d="M17.4807 11.0402L10.2526 9.0689C10.1254 9.0342 10 9.12998 10 9.26185V14.6829C10 14.83 10.1534 14.9268 10.2861 14.8634L17.5143 11.4136C17.6816 11.3338 17.6596 11.089 17.4807 11.0402Z" fill="url(#paint1_linear_6476_13104)"/>
<path d="M35.1809 11.0402L27.9528 9.0689C27.8256 9.0342 27.7002 9.12998 27.7002 9.26185V14.6829C27.7002 14.83 27.8536 14.9268 27.9863 14.8634L35.2145 11.4136C35.3818 11.3338 35.3598 11.089 35.1809 11.0402Z" fill="url(#paint2_linear_6476_13104)"/>
<defs>
<linearGradient id="paint0_linear_6476_13104" x1="18.3034" y1="0.2" x2="27.4812" y2="5.23339" gradientUnits="userSpaceOnUse">
<stop stop-color="#00866B"/>
<stop offset="1" stop-color="#014AAA"/>
</linearGradient>
<linearGradient id="paint1_linear_6476_13104" x1="9.52239" y1="7.65" x2="16.638" y2="11.8125" gradientUnits="userSpaceOnUse">
<stop stop-color="#00866B"/>
<stop offset="1" stop-color="#014AAA"/>
</linearGradient>
<linearGradient id="paint2_linear_6476_13104" x1="27.2226" y1="7.65" x2="34.3382" y2="11.8125" gradientUnits="userSpaceOnUse">
<stop stop-color="#00866B"/>
<stop offset="1" stop-color="#014AAA"/>
</linearGradient>
</defs>
</svg>
