<svg width="40" height="40" viewBox="0 0 40 40" fill="none" xmlns="http://www.w3.org/2000/svg">
<path d="M2 20L6 14.5L13.5473 14L17.5 16.3672L18.5 20.5488L21.5 22.5" stroke="black" stroke-width="1.6" stroke-linejoin="round"/>
<path d="M13 14L8 21.7305M8 21.7305L12.5 24.1816L17.5 29.5L12.5 36.5M8 21.7305L7.5 28.7305L1 30.5" stroke="black" stroke-width="1.6" stroke-linejoin="round"/>
<path d="M17 16L12.5 23.5" stroke="black" stroke-width="1.6" stroke-linejoin="round"/>
<path d="M17.5 12C18.8807 12 20 10.8807 20 9.5C20 8.11929 18.8807 7 17.5 7C16.1193 7 15 8.11929 15 9.5C15 10.8807 16.1193 12 17.5 12Z" stroke="black" stroke-width="1.6" stroke-linejoin="round"/>
<path d="M39 19.1816L34 17.1816L33 13L29.0473 10.6328L23 11L20.5 14.5" stroke="black" stroke-width="1.6" stroke-linejoin="round"/>
<path d="M29 11L26.5 14.8652L24 18.7305" stroke="black" stroke-width="1.6" stroke-linejoin="round"/>
<path d="M33 13L29 19.5" stroke="black" stroke-width="1.6" stroke-linejoin="round"/>
<path d="M33.5 9C34.8807 9 36 7.88071 36 6.5C36 5.11929 34.8807 4 33.5 4C32.1193 4 31 5.11929 31 6.5C31 7.88071 32.1193 9 33.5 9Z" stroke="black" stroke-width="1.6" stroke-linejoin="round"/>
<path d="M29.666 38C34.0843 38 37.666 34.4183 37.666 30C37.666 25.5817 34.0843 22 29.666 22C25.2477 22 21.666 25.5817 21.666 30C21.666 34.4183 25.2477 38 29.666 38Z" fill="url(#paint0_linear_6476_13010)"/>
<path d="M29.666 26.5V30.5H33.666" stroke="white" stroke-width="1.6" stroke-linecap="round"/>
<defs>
<linearGradient id="paint0_linear_6476_13010" x1="20.7108" y1="18.4" x2="36.7287" y2="25.4277" gradientUnits="userSpaceOnUse">
<stop stop-color="#00866B"/>
<stop offset="1" stop-color="#014AAA"/>
</linearGradient>
</defs>
</svg>
