<svg width="24" height="24" viewBox="0 0 24 24" fill="none" xmlns="http://www.w3.org/2000/svg">
<rect width="20" height="20" rx="10" transform="matrix(1 0 0 -1 2.40039 21.9999)" fill="#EB003B"/>
<path fill-rule="evenodd" clip-rule="evenodd" d="M13.4004 7.20001H11.4004V13.6H13.4004V7.20001ZM11.5767 16.7763C11.8075 17.0036 12.0827 17.1172 12.4023 17.1172C12.6154 17.1172 12.8089 17.0657 12.983 16.9627C13.1605 16.8562 13.3026 16.7142 13.4091 16.5366C13.5192 16.359 13.5742 16.162 13.5742 15.9453C13.5742 15.6257 13.457 15.3523 13.2227 15.125C12.9918 14.8978 12.7184 14.7841 12.4023 14.7841C12.0827 14.7841 11.8075 14.8978 11.5767 15.125C11.3459 15.3523 11.2305 15.6257 11.2305 15.9453C11.2305 16.272 11.3459 16.549 11.5767 16.7763Z" fill="white"/>
</svg>
