<svg width="24" height="24" viewBox="0 0 24 24" fill="none" xmlns="http://www.w3.org/2000/svg">
<path fill-rule="evenodd" clip-rule="evenodd" d="M5.03826 3.92972C5.38635 3.5749 5.95617 3.56945 6.31099 3.91754L21.479 18.7979C21.8338 19.146 21.8392 19.7158 21.4911 20.0707C21.143 20.4255 20.5732 20.4309 20.2184 20.0828L17.705 17.6171C17.615 17.7356 17.4943 17.8334 17.3481 17.8971C15.8674 18.5421 14.1952 18.9002 12.4006 18.9002C7.59671 18.9002 3.67434 16.329 1.98139 12.6133C1.87339 12.3762 1.87339 12.104 1.98139 11.8669C2.94213 9.75829 4.62539 8.01316 6.78236 6.90154L5.05044 5.20246C4.69562 4.85437 4.69017 4.28454 5.03826 3.92972ZM8.1345 8.22805C8.08647 8.26336 8.03419 8.29441 7.97796 8.32039C6.11893 9.17923 4.66861 10.5664 3.801 12.2401C5.27054 15.074 8.42204 17.1002 12.4006 17.1002C13.8618 17.1002 15.211 16.8263 16.4047 16.3414L15.3466 15.3034C15.315 15.3432 15.2797 15.3809 15.2405 15.416C14.4875 16.0896 13.4911 16.5002 12.401 16.5002C10.0482 16.5002 8.1409 14.5929 8.1409 12.2402C8.1409 11.201 8.5141 10.2467 9.13279 9.5074C9.17985 9.45117 9.23231 9.40215 9.28878 9.36044L8.1345 8.22805ZM10.5575 10.6051L14.0689 14.0499C14.0593 14.0579 14.0498 14.066 14.0404 14.0744C13.6046 14.4643 13.0314 14.7002 12.401 14.7002C11.0423 14.7002 9.9409 13.5988 9.9409 12.2402C9.9409 11.6389 10.1555 11.0901 10.5132 10.6626C10.5289 10.6439 10.5436 10.6247 10.5575 10.6051ZM11.1206 7.45181C11.5363 7.40448 11.9634 7.37996 12.4006 7.37996C16.3792 7.37996 19.5307 9.4062 21.0003 12.2401C20.564 13.0818 19.9807 13.8505 19.2723 14.5161C18.9101 14.8565 18.8924 15.426 19.2328 15.7883C19.5731 16.1505 20.1427 16.1682 20.5049 15.8278C21.4826 14.9091 22.2699 13.8203 22.8199 12.6133C22.9279 12.3762 22.9279 12.104 22.8199 11.8669C21.1269 8.15121 17.2045 5.57996 12.4006 5.57996C11.896 5.57996 11.401 5.60827 10.917 5.66336C10.4231 5.71957 10.0684 6.1655 10.1246 6.65937C10.1808 7.15324 10.6267 7.50802 11.1206 7.45181Z" fill="#2D2D2D"/>
</svg>
