<svg width="24" height="24" viewBox="0 0 24 24" fill="none" xmlns="http://www.w3.org/2000/svg">
<path fill-rule="evenodd" clip-rule="evenodd" d="M12.3996 16.8591C8.42151 16.8591 5.2704 14.8331 3.80102 11.9995C5.2704 9.16598 8.42151 7.14 12.3996 7.14C16.3777 7.14 19.5288 9.16598 20.9982 11.9995C19.5288 14.8331 16.3777 16.8591 12.3996 16.8591ZM12.3996 5.34C7.59616 5.34 3.67418 7.911 1.98139 11.6264C1.87339 11.8634 1.87339 12.1356 1.98139 12.3727C3.67418 16.0881 7.59616 18.6591 12.3996 18.6591C17.2031 18.6591 21.125 16.0881 22.8178 12.3727C22.9258 12.1356 22.9258 11.8634 22.8178 11.6264C21.125 7.91101 17.2031 5.34 12.3996 5.34ZM9.94015 11.9994C9.94015 10.641 11.0414 9.53972 12.3999 9.53972C13.7584 9.53972 14.8596 10.641 14.8596 11.9994C14.8596 13.3579 13.7584 14.4592 12.3999 14.4592C11.0414 14.4592 9.94015 13.3579 9.94015 11.9994ZM12.3999 7.73972C10.0473 7.73972 8.14015 9.64686 8.14015 11.9994C8.14015 14.352 10.0473 16.2592 12.3999 16.2592C14.7525 16.2592 16.6596 14.352 16.6596 11.9994C16.6596 9.64686 14.7525 7.73972 12.3999 7.73972Z" fill="#2D2D2D"/>
</svg>
