<svg width="24" height="24" viewBox="0 0 24 24" fill="none" xmlns="http://www.w3.org/2000/svg">
<path d="M14.1504 3.24251V6.95999C14.1504 7.46403 14.1504 7.71605 14.2458 7.90857C14.3297 8.07792 14.4635 8.2156 14.6281 8.30189C14.8153 8.39998 15.0603 8.39998 15.5504 8.39998H19.1646M15.9004 12.8999H8.90039M15.9004 16.4999H8.90039M14.1504 2.99993H9.60039C6.56773 2.99993 7.15039 2.99971 5.40039 3.00015V17.7999C5.40039 18.92 5.40039 19.48 5.61838 19.9079C5.81012 20.2842 6.11609 20.5901 6.49241 20.7819C6.92023 20.9999 7.48024 20.9999 8.60027 20.9999C8.88976 20.9999 9.22011 20.9999 9.60039 20.9999H15.2004C18.444 20.9999 17.2129 20.9998 19.4004 20.9999V8.39992L14.1504 2.99993Z" stroke="#2D2D2D" stroke-width="1.8" stroke-linecap="round" stroke-linejoin="round"/>
</svg>
