<svg width="24" height="24" viewBox="0 0 24 24" fill="none" xmlns="http://www.w3.org/2000/svg">
<path d="M13.75 3.24263V6.96011C13.75 7.46415 13.75 7.71618 13.8454 7.9087C13.9293 8.07804 14.0631 8.21572 14.2278 8.30201C14.4149 8.4001 14.66 8.4001 15.15 8.4001H18.7642M15.5 12.9H8.5M15.5 16.5H8.5M13.75 3.00006H9.2C6.16734 3.00006 6.75 2.99984 5 3.00027V17.8C5 18.9201 5 19.4802 5.21799 19.908C5.40973 20.2843 5.71569 20.5903 6.09202 20.782C6.51984 21 7.07985 21 8.19988 21C8.48936 21 8.81972 21 9.2 21H14.8C18.0436 21 16.8125 20.9999 19 21V8.40004L13.75 3.00006Z" stroke="#014AAA" stroke-width="1.8" stroke-linecap="round" stroke-linejoin="round"/>
</svg>
