<svg width="24" height="24" viewBox="0 0 24 24" fill="none" xmlns="http://www.w3.org/2000/svg">
<mask id="mask0_1_1989" style="mask-type:alpha" maskUnits="userSpaceOnUse" x="0" y="0" width="25" height="24">
<rect x="0.400391" y="-6.10352e-05" width="24" height="24" fill="#FFB724"/>
</mask>
<g mask="url(#mask0_1_1989)">
<path d="M11.5344 1.99994C11.9193 1.33327 12.8815 1.33327 13.2664 1.99994L23.2257 19.2499C23.6106 19.9166 23.1295 20.7499 22.3597 20.7499H2.4411C1.6713 20.7499 1.19017 19.9166 1.57507 19.2499L11.5344 1.99994Z" fill="#FFB724"/>
</g>
<path fill-rule="evenodd" clip-rule="evenodd" d="M13.4004 8.00006H11.4004V14.4001H13.4004V8.00006ZM11.5767 17.5764C11.8075 17.8036 12.0827 17.9173 12.4023 17.9173C12.6154 17.9173 12.8089 17.8658 12.983 17.7628C13.1605 17.6563 13.3026 17.5142 13.4091 17.3367C13.5192 17.1591 13.5742 16.962 13.5742 16.7454C13.5742 16.4258 13.457 16.1523 13.2227 15.9251C12.9918 15.6978 12.7184 15.5842 12.4023 15.5842C12.0827 15.5842 11.8075 15.6978 11.5767 15.9251C11.3459 16.1523 11.2305 16.4258 11.2305 16.7454C11.2305 17.0721 11.3459 17.3491 11.5767 17.5764Z" fill="white"/>
</svg>
