<svg width="190" height="40" viewBox="0 0 190 40" fill="none" xmlns="http://www.w3.org/2000/svg">
<path d="M36.991 15.714C36.991 15.714 36.9562 15.6094 36.9388 15.5397L36.0337 13.1351C35.8074 12.5426 35.3722 12.0721 34.7978 11.8108C34.3974 11.6365 33.9797 11.5668 33.5619 11.6191L33.0223 10.7653C33.179 10.469 33.2834 10.138 33.3008 9.77204C33.3356 9.12732 33.1268 8.51744 32.6916 8.04696L30.9857 6.14763C30.3417 5.43321 29.3669 5.20668 28.514 5.46806L28.0092 4.91045C28.1137 4.57938 28.1833 4.21345 28.1833 3.84753C28.1833 1.93077 26.6167 0.362518 24.702 0.362518C22.7872 0.362518 21.2206 1.93077 21.2206 3.84753C21.2206 4.98015 21.7602 5.97338 22.5958 6.61811H19.9674C19.1666 6.61811 18.5052 7.28026 18.5052 8.08181C18.5052 8.88336 19.1666 9.54552 19.9674 9.54552H22.9787L22.4217 18.8331L20.4547 16.9163C19.3929 15.714 17.6175 15.714 17.5478 15.714H0.00195312L0.0889857 16.1845C0.0889857 16.1845 0.680811 18.8853 3.10033 19.4429C3.10033 19.9308 3.18737 20.8195 3.7966 21.5688C4.30139 22.1961 5.04987 22.5794 6.00724 22.7188C6.21612 24.0257 7.10386 26.047 9.38412 26.047H14.2406L13.5617 30.5078L14.8498 30.0548C15.3546 31.17 17.1475 34.7247 20.3851 36.4149C22.7002 37.6347 23.5705 38.2271 24.1101 39.0461L24.702 39.8825L25.2938 39.0461C25.8334 38.2271 26.7037 37.6347 29.0188 36.4149C32.2564 34.7247 34.0493 31.17 34.5541 30.0548L35.8422 30.5078L35.1633 26.047H40.0198C42.3 26.047 43.1878 24.0257 43.3967 22.7188C44.354 22.5794 45.1025 22.1961 45.6073 21.5688C46.2165 20.8195 46.3036 19.9308 46.3036 19.4429C48.7231 18.8853 49.2975 16.2019 49.3149 16.1845L49.402 15.714H37.0084H36.991ZM34.0841 14.4768C34.0841 14.4768 34.1538 14.4245 34.1886 14.3897L34.6934 15.714H34.1363L33.7186 14.5988C33.8578 14.5814 33.9797 14.5291 34.1015 14.4594L34.0841 14.4768ZM34.2582 26.047L31.212 28.8873L32.1868 29.2358C30.3591 31.4662 28.601 32.4072 27.8177 32.7557L27.4174 26.047H34.2582ZM30.7246 12.107C30.7246 12.107 30.8117 12.107 30.8465 12.107C31.0032 12.107 31.1772 12.0896 31.3339 12.0547L31.7342 12.6994C31.3339 13.3093 31.212 14.1109 31.4905 14.8602L31.8039 15.714C31.5079 15.714 29.9239 15.8185 28.9492 16.9163L26.9822 18.8331L26.4252 9.54552H27.487L29.071 11.3229C29.4888 11.7933 30.0806 12.0721 30.7072 12.107H30.7246ZM30.2024 9.33642C30.3591 9.24929 30.481 9.12732 30.6028 8.98792L31.0728 9.51066C31.0728 9.51066 31.0206 9.52809 31.0032 9.54552C30.8639 9.63264 30.7595 9.73719 30.6898 9.85917L30.2199 9.33642H30.2024ZM29.2103 6.02566C29.6802 6.02566 30.1676 6.21733 30.4984 6.60068L32.2042 8.50001C32.5175 8.84851 32.6742 9.28414 32.6394 9.75462C32.6394 9.87659 32.622 9.98114 32.5872 10.1031L32.4479 9.87659C32.2738 9.61522 32.0127 9.44097 31.7168 9.40612C31.682 9.30157 31.6298 9.17959 31.5428 9.09246L30.8639 8.34319C30.8639 8.34319 30.8813 8.18636 30.8813 8.09924C30.8813 7.31511 30.2721 6.67038 29.4888 6.63553C29.4714 6.60068 29.454 6.56583 29.4191 6.53098L28.984 6.04308C28.984 6.04308 29.1232 6.02566 29.1929 6.02566H29.2103ZM27.7133 5.57261L27.8874 5.76428L28.0962 6.00823L28.3225 6.25218L28.6533 6.61811L28.7403 6.70523C28.4618 6.70523 28.1137 6.70523 27.8003 6.70523C27.7307 6.70523 27.6785 6.70523 27.6263 6.70523L27.5392 6.61811L27.5044 6.56583L27.2955 6.32188L27.2259 6.25218L27.1737 6.18248L26.7211 5.67716L26.6689 5.60746L26.3208 5.2241L26.1641 5.04986L25.903 4.75363C25.903 4.75363 25.8334 4.64908 25.816 4.5968C25.7638 4.43998 25.816 4.28315 25.9378 4.16118C25.9552 4.14375 25.9726 4.12633 26.0075 4.1089C26.0771 4.07405 26.1641 4.0392 26.2337 4.05663C26.3382 4.05663 26.4426 4.1089 26.5122 4.19603L26.5471 4.23088L26.7211 4.42255L27.1215 4.8756L27.1911 4.96273L27.6785 5.50291L27.7481 5.57261H27.7133ZM21.9691 3.84753C21.9691 2.34897 23.1876 1.12922 24.6845 1.12922C26.1815 1.12922 27.4 2.34897 27.4 3.84753C27.4 3.9695 27.4 4.09148 27.3652 4.21345L27.2607 4.1089L26.9474 3.7604C26.9474 3.7604 26.8082 3.621 26.7211 3.56873C26.6515 3.51645 26.5819 3.49903 26.5122 3.46418C26.3382 2.59292 25.5723 1.9482 24.6671 1.9482C23.6227 1.9482 22.7872 2.80202 22.7872 3.8301C22.7872 4.85818 23.6402 5.71201 24.6671 5.71201C25.0153 5.71201 25.346 5.60746 25.6245 5.43321L26.1815 6.07793C25.7464 6.37416 25.2242 6.54841 24.6671 6.54841C23.1702 6.54841 21.9517 5.32866 21.9517 3.8301L21.9691 3.84753ZM25.2067 4.85818C25.0501 4.9453 24.876 4.98015 24.702 4.98015C24.0753 4.98015 23.5879 4.47483 23.5879 3.86495C23.5879 3.25508 24.0927 2.74975 24.702 2.74975C25.2067 2.74975 25.6245 3.08082 25.7638 3.5513C25.6593 3.60358 25.5723 3.65585 25.4853 3.72555C25.1545 4.02178 25.0675 4.47483 25.2067 4.8756V4.85818ZM21.9691 26.047L21.5688 32.7557C20.7681 32.4246 19.0274 31.4836 17.1997 29.2358L18.1745 28.8873L15.1283 26.047H21.9691ZM34.1015 29.079L33.9623 29.4275C33.9623 29.4275 32.1868 33.8883 28.6359 35.7354C26.4078 36.9028 25.346 37.5824 24.6845 38.5408C24.0231 37.565 22.9613 36.9028 20.7332 35.7354C17.1997 33.8883 15.4242 29.4798 15.4068 29.4275L15.2676 29.079L14.5017 29.3404L14.8846 26.866L16.7123 28.5737L15.929 28.8525L16.2423 29.2707C19.0274 32.8777 21.708 33.6095 21.8125 33.6444L22.265 33.7663L22.735 26.0296L22.7872 25.2629L23.0657 20.5756V20.1748L23.118 19.774V19.5649L23.7794 8.77881H19.9499C19.567 8.77881 19.2537 8.46516 19.2537 8.08181C19.2537 7.69846 19.567 7.38481 19.9499 7.38481H29.4366C29.4366 7.38481 29.5584 7.38481 29.628 7.41966C29.8717 7.48936 30.0806 7.69846 30.1154 7.95984C30.1154 7.99469 30.1154 8.02954 30.1154 8.08181C30.1154 8.18636 30.0806 8.29091 30.0458 8.37804C29.9588 8.53486 29.8195 8.67426 29.6454 8.72654C29.5758 8.74396 29.4888 8.76139 29.4191 8.76139H25.5897L26.2337 19.5475V19.7566L26.2685 20.1574V20.5581L26.5645 25.2455L26.6167 26.0122L27.0867 33.7489L27.5392 33.6269C27.6437 33.5921 30.3417 32.8777 33.1094 29.2532L33.4227 28.835L32.6394 28.5562L34.4671 26.8486L34.85 29.3229L34.0841 29.0616L34.1015 29.079Z" fill="#818383"/>
<path d="M29.4364 9.54565H28.3572L29.5582 10.8874C29.8716 11.2359 30.2893 11.4276 30.7593 11.4624C30.8289 11.4624 30.8985 11.4624 30.9682 11.4624L30.6723 11.0094C30.5852 10.8525 30.533 10.6957 30.5156 10.5215C30.4112 10.4866 30.3067 10.4169 30.2197 10.3124L29.5408 9.56308C29.5408 9.56308 29.4712 9.56308 29.4538 9.56308L29.4364 9.54565Z" fill="white"/>
<path d="M34.5716 13.6233C34.5716 13.6233 34.589 13.6581 34.6064 13.693L35.3723 15.7317H36.3123L35.442 13.3967C35.2853 12.9611 34.9546 12.6126 34.5368 12.4209C34.3453 12.3338 34.1539 12.2815 33.9624 12.2641L34.4324 13.0134C34.5542 13.2051 34.6064 13.4142 34.589 13.6233H34.5716Z" fill="white"/>
<path d="M32.6213 14.1282L32.1165 13.3266C31.9425 13.7274 31.9077 14.1979 32.0817 14.6335L32.4821 15.7139H33.422L32.9521 14.4593C32.8128 14.3721 32.7084 14.2676 32.6213 14.1282Z" fill="white"/>
<path d="M32.4474 11.0442L32.2734 10.7654L31.9252 10.2252C31.873 10.1381 31.786 10.0858 31.699 10.0509C31.6641 10.0509 31.6293 10.0335 31.5771 10.0335C31.5075 10.0335 31.4204 10.0509 31.3682 10.1032C31.2116 10.2078 31.1419 10.382 31.1768 10.5388C31.1768 10.5911 31.1942 10.626 31.229 10.6782L31.6293 11.3055L31.8034 11.5843L31.9775 11.8631L32.2037 12.2291L32.3778 12.5079L32.5519 12.7867L33.0393 13.5708L33.1959 13.8147C33.2481 13.9019 33.3526 13.9716 33.457 13.989C33.4918 13.989 33.5092 13.989 33.5441 13.989C33.6311 13.989 33.7007 13.9716 33.7703 13.9193C33.7703 13.9193 33.8574 13.8322 33.8922 13.7799C33.9792 13.6579 33.9792 13.4837 33.8922 13.3443L33.7529 13.1352L33.2656 12.351L33.0915 12.0722L32.9174 11.7934L32.6215 11.3404L32.4474 11.0616V11.0442Z" fill="white"/>
<path d="M27.0698 20.1399L27.1743 22.0044H43.0143C43.902 21.9347 44.5809 21.621 44.9986 21.0983C45.4164 20.5755 45.5034 19.9308 45.5208 19.5475H29.002C29.002 19.5475 27.9053 19.5475 27.0872 20.1399H27.0698Z" fill="white"/>
<path d="M27.3647 25.2804H40.0019C41.8644 25.2804 42.4214 23.5902 42.5781 22.7712H27.208L27.3647 25.2804Z" fill="white"/>
<path d="M36.7648 16.4986H31.8562C31.8562 16.4986 30.3418 16.4986 29.5237 17.4569H29.5063L28.0615 18.9032C28.5837 18.7812 28.9667 18.7812 29.0015 18.7812H45.6248C47.3829 18.6593 48.1314 17.2478 48.4099 16.4986H36.7822H36.7648Z" fill="white"/>
<path d="M22.1777 22.7538H6.80762C6.96428 23.5727 7.53869 25.263 9.3838 25.263H22.021L22.1777 22.7538Z" fill="white"/>
<path d="M22.3346 20.1399C21.4991 19.5649 20.4198 19.5475 20.4198 19.5475H3.88354C3.88354 19.9308 3.98798 20.5755 4.40574 21.0983C4.8235 21.621 5.48495 21.9173 6.3901 21.987H22.2301L22.3346 20.1225V20.1399Z" fill="white"/>
<path d="M21.3422 18.8857L19.8627 17.4394C19.0272 16.4985 17.5302 16.481 17.5302 16.481H0.993896C1.2724 17.2303 2.02089 18.6418 3.77896 18.7637H20.4023C20.4023 18.7637 20.8375 18.7637 21.3422 18.8857Z" fill="white"/>
<path d="M24.6844 5.74694C23.64 5.74694 22.8044 4.89311 22.8044 3.86504C22.8044 2.83696 23.6574 1.98313 24.6844 1.98313C25.6069 1.98313 26.3554 2.64528 26.5295 3.49911C26.5991 3.51653 26.6687 3.55138 26.7383 3.60366C26.8254 3.65593 26.895 3.70821 26.9646 3.79534L27.2779 4.14384L27.3824 4.24839C27.3824 4.12641 27.4172 4.00444 27.4172 3.88246C27.4172 2.38391 26.1987 1.16415 24.7018 1.16415C23.2048 1.16415 21.9863 2.38391 21.9863 3.88246C21.9863 5.38101 23.2048 6.60077 24.7018 6.60077C25.2588 6.60077 25.781 6.42652 26.2161 6.13029L25.6591 5.48556C25.3806 5.65982 25.0499 5.76437 24.7018 5.76437L24.6844 5.74694Z" fill="white"/>
<path d="M29.5057 6.61818C30.2716 6.65303 30.8982 7.29775 30.8982 8.08188C30.8982 8.16901 30.8982 8.25613 30.8808 8.32583L31.5597 9.07511C31.6467 9.16223 31.6989 9.26678 31.7337 9.38876C32.0297 9.44103 32.2908 9.59786 32.4648 9.85924L32.6041 10.0858C32.6389 9.98121 32.6563 9.85923 32.6563 9.73726C32.6737 9.26678 32.517 8.83116 32.2211 8.48266L30.5153 6.58333C30.1671 6.19998 29.6972 6.0083 29.2272 6.0083C29.1576 6.0083 29.0879 6.0083 29.0183 6.02572L29.4535 6.51363C29.4535 6.51363 29.5057 6.58333 29.5231 6.61818H29.5057Z" fill="white"/>
<path d="M32.6736 28.5914L33.4569 28.8702L33.1436 29.2884C30.3585 32.8954 27.6779 33.6273 27.5734 33.6621L27.1209 33.7841L26.6509 26.0474L26.5987 25.2807L26.3202 20.5933V20.1925L26.268 19.7918V19.5827L25.6065 8.79656H29.436C29.436 8.79656 29.5926 8.79656 29.6622 8.76171C29.8363 8.69201 29.9756 8.57004 30.0626 8.41321C30.1148 8.32608 30.1322 8.22154 30.1322 8.11699C30.1322 8.08214 30.1322 8.02986 30.1322 7.99501C30.08 7.73363 29.8885 7.52453 29.6448 7.45483C29.5752 7.43741 29.523 7.41998 29.4534 7.41998H19.9668C19.5838 7.41998 19.2705 7.73363 19.2705 8.11699C19.2705 8.50034 19.5838 8.81399 19.9668 8.81399H23.7962L23.1522 19.6001V19.8092L23.1174 20.21V20.6107L22.8214 25.2981L22.7692 26.0648L22.2992 33.8015L21.8467 33.6795C21.7422 33.6447 19.0442 32.9302 16.2766 29.3058L15.9632 28.8876L16.7465 28.6088L14.9188 26.9012L14.5359 29.3755L15.3018 29.1142L15.441 29.4627C15.441 29.4627 17.2165 33.9235 20.7675 35.7705C22.9955 36.938 24.0573 37.6176 24.7188 38.576C25.3802 37.6002 26.442 36.938 28.6701 35.7705C32.2036 33.9235 33.9791 29.5149 33.9965 29.4627L34.1357 29.1142L34.9016 29.3755L34.5187 26.9012L32.691 28.6088L32.6736 28.5914Z" fill="white"/>
<path d="M28.6706 6.6184L28.3399 6.25247L28.1136 6.00852L27.9047 5.76457L27.7306 5.57289L27.661 5.50319L27.1736 4.96302L27.104 4.87589L26.7036 4.42284L26.5296 4.23117L26.4948 4.19632C26.4948 4.19632 26.3207 4.07434 26.2162 4.05692C26.1292 4.05692 26.0596 4.05691 25.99 4.10919C25.9726 4.10919 25.9551 4.14404 25.9203 4.16147C25.7985 4.28344 25.7463 4.44027 25.7985 4.59709C25.7985 4.64937 25.8507 4.70164 25.8855 4.75392L26.1466 5.05014L26.3033 5.22439L26.6514 5.60774L26.7036 5.67744L27.1562 6.18277L27.2084 6.25247L27.278 6.32217L27.4869 6.56612L27.5217 6.6184L27.6088 6.70552C27.6088 6.70552 27.7306 6.70552 27.7828 6.70552C28.0962 6.70552 28.4443 6.70552 28.7228 6.70552L28.6358 6.6184H28.6706Z" fill="white"/>
<path d="M24.6143 25.001V24.3214V20.6273L19.1138 28.3292L24.6143 25.001Z" fill="#F5E600"/>
<path d="M24.6145 20.1745V10.643L22.0906 16.6372L24.6145 20.1745Z" fill="#F5E600"/>
<path d="M22.4392 21.063L24.4583 20.4008L15.5461 17.456L20.3678 21.7426L22.4392 21.063Z" fill="#F5E600"/>
<path d="M24.8755 20.5405L29.9234 27.5976L30.3934 28.2423L28.966 21.8822L24.8755 20.5405Z" fill="#F5E600"/>
<path d="M24.8755 20.2618L33.7877 17.317L27.4169 16.7245L25.9547 18.7458L24.8755 20.2618Z" fill="#F5E600"/>
<path d="M24.9265 20.4008L29.0171 21.7425L33.8387 17.456L30.3922 18.5886L24.9265 20.4008Z" fill="#E50C22"/>
<path d="M20.4183 21.8822L18.991 28.2423L24.5089 20.5405L20.4183 21.8822Z" fill="#E50C22"/>
<path d="M21.9847 16.7245H21.9673L15.5964 17.3169L24.5086 20.2618L21.9847 16.7245Z" fill="#E50C22"/>
<path d="M24.7698 25.001L30.2703 28.3292L24.7698 20.6273V25.001Z" fill="#E50C22"/>
<path d="M24.7698 10.643V20.1745L27.2937 16.6372L24.7698 10.643Z" fill="#E50C22"/>
<path d="M29.1227 21.8479L34.3272 17.2128L27.4342 16.5681L24.771 10.2602L24.7014 10.086L24.6317 10.2602L21.9685 16.5681L15.2322 17.1954H15.0581L15.1974 17.3174L20.2801 21.8479L18.7483 28.7133L24.7014 25.1064L30.5152 28.6262L30.6719 28.7133L30.6196 28.5217L29.1401 21.8304L29.1227 21.8479ZM21.9685 16.7249L24.4925 20.2622L15.5803 17.3174L21.9511 16.7249H21.9685ZM15.5455 17.4568L24.4577 20.4016L22.4385 21.0637L20.3671 21.7433L15.5455 17.4568ZM20.4193 21.8827L24.5099 20.5236L19.0094 28.2254L20.4193 21.8827ZM24.6143 24.3222V25.0018L19.1138 28.33L24.6143 20.6281V24.3222ZM24.6143 20.1751L22.0904 16.6378L24.6143 10.661V20.1751ZM29.0182 21.7433L24.9277 20.3842L30.3933 18.572L33.8225 17.4393L29.0008 21.7259L29.0182 21.7433ZM33.7876 17.3174L24.8754 20.2622L25.9547 18.7636L27.3994 16.7249L33.7876 17.3174ZM24.771 10.6436L27.295 16.6204L24.771 20.1576V10.6436ZM24.771 25.0018V20.6281L30.2715 28.33L24.771 25.0018ZM29.9234 27.5981L24.8754 20.541L28.966 21.9001L30.3759 28.2429L29.9234 27.5981Z" fill="#818383"/>
<path d="M186.362 22.0361C186.69 22.0362 186.966 22.0638 187.187 22.1211C187.405 22.1777 187.574 22.2649 187.688 22.3857C187.93 22.6102 188.042 23.0058 188.042 23.5498V26.2383C188.042 26.7961 187.931 27.1987 187.69 27.4238L187.691 27.4248C187.577 27.5392 187.406 27.6209 187.186 27.6738C186.965 27.7269 186.69 27.7529 186.362 27.7529H176.82C176.751 27.7529 176.698 27.7567 176.659 27.7637C176.64 27.7672 176.626 27.7715 176.616 27.7754C176.612 27.7771 176.609 27.7781 176.606 27.7793C176.599 27.7937 176.591 27.8182 176.585 27.8555C176.578 27.8984 176.573 27.9542 176.573 28.0234V28.832C176.573 28.9104 176.577 28.9656 176.584 28.999C176.585 29.0055 176.587 29.0106 176.588 29.0146C176.589 29.0149 176.59 29.0152 176.591 29.0156C176.594 29.0166 176.599 29.0183 176.605 29.0195C176.619 29.022 176.637 29.0235 176.659 29.0254C176.704 29.0291 176.766 29.0312 176.845 29.0312H188.241C188.337 29.0312 188.422 29.0704 188.494 29.1406H188.495C188.588 29.2149 188.638 29.3115 188.638 29.4268V30.9502C188.638 31.0508 188.586 31.1355 188.501 31.2061C188.433 31.2893 188.356 31.3456 188.266 31.3457H175.44C174.803 31.3457 174.35 31.2271 174.109 30.9688C173.872 30.7142 173.76 30.3223 173.76 29.8076V27.0957C173.76 26.5823 173.864 26.1973 174.086 25.958L174.088 25.957C174.329 25.7161 174.772 25.6055 175.393 25.6055H185.006C185.075 25.6055 185.129 25.6017 185.167 25.5947C185.186 25.5913 185.2 25.5869 185.21 25.583C185.214 25.5816 185.216 25.5792 185.218 25.5781C185.225 25.5639 185.235 25.5392 185.241 25.498C185.248 25.4508 185.253 25.3881 185.253 25.3105V24.6445C185.253 24.5589 185.248 24.4933 185.241 24.4463C185.238 24.423 185.234 24.4055 185.229 24.3936C185.227 24.3859 185.225 24.3815 185.224 24.3799C185.224 24.3799 185.22 24.3768 185.21 24.373C185.199 24.369 185.183 24.3649 185.162 24.3613C185.119 24.3542 185.059 24.3506 184.981 24.3506H174.108C174.011 24.3506 173.918 24.311 173.831 24.2412L173.825 24.2373L173.826 24.2363C173.753 24.1629 173.712 24.0766 173.712 23.9785V22.4082C173.712 22.3101 173.753 22.2229 173.826 22.1494L173.831 22.1445C173.918 22.0749 174.011 22.0361 174.108 22.0361H186.362ZM187.671 8.6875C187.784 8.68754 187.88 8.71585 187.947 8.7832C188.014 8.8506 188.042 8.94697 188.042 9.05957V20.6709C188.042 20.7904 188.015 20.8914 187.948 20.9629C187.881 21.0352 187.785 21.0664 187.671 21.0664H185.553C185.44 21.0664 185.344 21.0381 185.276 20.9707C185.209 20.9033 185.181 20.8069 185.181 20.6943V16.0693H181.889C181.792 16.0693 181.699 16.0307 181.611 15.9609L181.606 15.9561C181.531 15.8801 181.493 15.7844 181.493 15.6738V14.1514C181.493 14.0531 181.533 13.9714 181.611 13.9121C181.699 13.8423 181.792 13.8037 181.889 13.8037H185.181V9.05957C185.181 8.94696 185.209 8.8506 185.276 8.7832C185.344 8.71584 185.44 8.68754 185.553 8.6875H187.671ZM179.818 9.47266C179.939 9.47266 180.041 9.50296 180.112 9.57422C180.184 9.64556 180.214 9.74756 180.214 9.86816V11.415C180.214 11.5288 180.183 11.6252 180.111 11.6924C180.04 11.7588 179.938 11.7871 179.818 11.7871H173.918C173.784 11.7871 173.688 11.8166 173.623 11.8682L173.622 11.8691C173.605 11.8818 173.587 11.9079 173.573 11.9561C173.56 12.0038 173.552 12.0686 173.552 12.1523V13.6602H176.51C177.508 13.6443 178.467 13.6054 179.386 13.542L179.391 13.541V13.542C179.464 13.5421 179.544 13.5601 179.628 13.5938H179.627C179.68 13.6119 179.726 13.6385 179.759 13.6768C179.793 13.7168 179.81 13.7652 179.81 13.8184V15.293C179.81 15.4325 179.788 15.5486 179.734 15.6309C179.678 15.7178 179.592 15.7607 179.485 15.7607V15.7598C178.502 15.8389 177.503 15.8875 176.488 15.9033C175.509 15.9189 174.531 15.9255 173.552 15.9258V17.3398C173.552 17.4639 173.562 17.5638 173.58 17.6406C173.598 17.7139 173.622 17.7612 173.648 17.79C173.688 17.8148 173.749 17.8402 173.838 17.8623C173.929 17.8851 174.046 17.9043 174.187 17.9199H174.186C174.532 17.9513 174.981 17.9658 175.534 17.9658C176.105 17.95 176.715 17.9272 177.364 17.8955C178.013 17.848 178.67 17.7928 179.335 17.7295C180.016 17.6503 180.649 17.556 181.234 17.4453C181.354 17.4121 181.468 17.4115 181.575 17.4473H181.574C181.675 17.4766 181.748 17.5386 181.794 17.6289L181.83 17.7295L181.831 17.7324L182.069 19.0166L182.082 19.1416C182.082 19.2581 182.042 19.3562 181.956 19.4297C181.871 19.5144 181.782 19.5698 181.687 19.5889L181.688 19.5898C181.083 19.7171 180.375 19.8361 179.565 19.9473C178.755 20.0585 177.921 20.1464 177.063 20.21H177.062C176.22 20.2576 175.395 20.2888 174.585 20.3047C173.774 20.3206 173.066 20.2972 172.46 20.2334V20.2324C171.928 20.184 171.495 20.0309 171.166 19.7676L171.163 19.7656C170.846 19.4816 170.69 19.0823 170.69 18.5771V11.0576C170.69 10.4978 170.802 10.0877 171.042 9.84766C171.298 9.59181 171.74 9.47272 172.347 9.47266H179.818Z" fill="#101010" stroke="#101010" stroke-width="0.125"/>
<path d="M164.628 10.2816C164.739 10.2816 164.832 10.3283 164.905 10.4144L164.967 10.474C165.02 10.5379 165.048 10.614 165.048 10.7006V12.1527C165.048 12.2804 165.001 12.391 164.91 12.4818C164.834 12.5577 164.738 12.5961 164.628 12.5961H162.311V18.8002H165.08C165.191 18.8002 165.284 18.8467 165.357 18.933L165.419 18.9926C165.472 19.0565 165.5 19.1325 165.5 19.2191V20.6713C165.5 20.7989 165.453 20.9096 165.362 21.0004C165.286 21.0763 165.19 21.1136 165.08 21.1136H158.552V25.1293H167.483C167.585 25.1293 167.679 25.1808 167.765 25.267C167.851 25.3529 167.903 25.4467 167.903 25.5482V27.1195C167.903 27.221 167.851 27.3148 167.765 27.4008C167.679 27.4869 167.585 27.5385 167.483 27.5385H146.759C146.643 27.5384 146.546 27.4888 146.471 27.3959C146.402 27.3089 146.363 27.2163 146.363 27.1195V25.5482C146.363 25.4403 146.399 25.3468 146.471 25.2719L146.532 25.2103C146.596 25.1572 146.672 25.1293 146.759 25.1293H155.69V21.1136H149.162C149.062 21.1136 148.96 21.0645 148.86 20.9808L148.856 20.9769C148.765 20.886 148.719 20.7747 148.719 20.6469V19.2191C148.719 19.1175 148.77 19.0229 148.856 18.9369L148.86 18.933L148.935 18.8773C149.011 18.8279 149.087 18.8002 149.162 18.8002H151.93V12.5961H149.614C149.514 12.5961 149.413 12.5459 149.312 12.4623C149.205 12.3726 149.147 12.2602 149.147 12.1283V10.7006C149.147 10.5946 149.211 10.4998 149.312 10.4154C149.413 10.3317 149.514 10.2816 149.614 10.2816H164.628ZM154.72 18.8002H159.521V12.5961H154.72V18.8002Z" fill="#101010" stroke="#101010" stroke-width="0.125"/>
<path d="M135.375 22.7979C136.505 22.7979 137.509 22.9008 138.387 23.1084C139.28 23.3156 140.032 23.6113 140.641 23.9961C141.251 24.3653 141.72 24.8164 142.043 25.3496C142.366 25.883 142.528 26.4658 142.528 27.0957C142.528 27.7255 142.366 28.3076 142.043 28.8408C141.72 29.374 141.252 29.8251 140.642 30.1943C140.033 30.5634 139.28 30.8513 138.387 31.0586C137.509 31.2662 136.505 31.3691 135.375 31.3691C134.245 31.3691 133.232 31.2661 132.339 31.0586C131.462 30.8513 130.71 30.5639 130.085 30.1953L130.084 30.1943C129.474 29.8252 128.999 29.3744 128.66 28.8418L128.659 28.8408C128.336 28.3076 128.175 27.7255 128.175 27.0957C128.175 26.4658 128.336 25.883 128.659 25.3496L128.66 25.3486C128.999 24.8161 129.474 24.3652 130.084 23.9961L130.324 23.8564C130.899 23.5391 131.571 23.2899 132.339 23.1084C133.232 22.9009 134.245 22.7979 135.375 22.7979ZM135.375 25.0879C134.031 25.0879 132.995 25.2692 132.261 25.6279L132.262 25.6289C131.547 25.9864 131.202 26.4754 131.202 27.0957C131.202 27.7158 131.548 28.2051 132.262 28.5625H132.261C132.995 28.9213 134.031 29.1025 135.375 29.1025C136.719 29.1025 137.747 28.9209 138.464 28.5625H138.465C139.196 28.2048 139.547 27.7151 139.548 27.0957C139.548 26.4762 139.196 25.9867 138.465 25.6289H138.464C137.747 25.2704 136.719 25.0879 135.375 25.0879ZM141.894 8.6875C142.007 8.6875 142.103 8.71579 142.171 8.7832C142.238 8.85061 142.266 8.94684 142.266 9.05957V14.4453H145.44C145.536 14.4454 145.62 14.4846 145.692 14.5547H145.693C145.783 14.6263 145.836 14.7141 145.836 14.8174V16.4834C145.836 16.5867 145.783 16.6745 145.693 16.7461L145.692 16.7451C145.62 16.8154 145.536 16.8544 145.44 16.8545H142.266V22.1934C142.266 22.3061 142.238 22.4023 142.171 22.4697C142.103 22.5371 142.007 22.5654 141.894 22.5654H139.777C139.663 22.5654 139.566 22.5343 139.499 22.4619C139.433 22.3905 139.405 22.2893 139.405 22.1699V9.05957C139.405 8.94683 139.433 8.85061 139.501 8.7832C139.568 8.71581 139.664 8.6875 139.777 8.6875H141.894ZM134.233 9.66309C134.854 9.66314 135.298 9.78973 135.539 10.0635C135.777 10.3188 135.889 10.7353 135.889 11.2959V14.8887C135.889 15.48 135.762 15.9069 135.488 16.1475C135.234 16.3849 134.843 16.498 134.328 16.498H128.903C128.78 16.498 128.714 16.5218 128.685 16.5508L128.677 16.5596L128.676 16.5586C128.67 16.5624 128.658 16.5755 128.648 16.6123C128.638 16.6484 128.633 16.7 128.633 16.7686V18.6719C128.633 18.7959 128.665 18.8779 128.719 18.9297C128.775 18.982 128.864 19.0146 128.998 19.0146H129C130.441 19.0463 131.938 19.014 133.491 18.9189L134.632 18.8252C135.748 18.7212 136.794 18.5862 137.767 18.4199C137.859 18.402 137.95 18.4117 138.039 18.4473H138.038C138.09 18.4579 138.137 18.4784 138.174 18.5146C138.212 18.5536 138.234 18.6047 138.244 18.6621L138.482 20.1113L138.487 20.1865C138.483 20.2612 138.452 20.333 138.398 20.4004L138.393 20.4062C138.34 20.4595 138.28 20.4983 138.215 20.5225L138.147 20.542C137.4 20.685 136.581 20.8117 135.692 20.9229C134.803 21.034 133.889 21.122 132.952 21.1855C132.015 21.249 131.071 21.2964 130.119 21.3281H130.117C129.18 21.344 128.291 21.3365 127.449 21.3047H127.448C126.827 21.2728 126.386 21.1449 126.146 20.9053C125.907 20.666 125.795 20.281 125.795 19.7666V15.7451C125.795 15.2629 125.898 14.9012 126.122 14.6777L126.124 14.6768C126.363 14.4546 126.748 14.3506 127.261 14.3506H132.758C132.843 14.3506 132.909 14.347 132.956 14.3398C132.979 14.3362 132.997 14.3313 133.009 14.3271C133.016 14.3243 133.021 14.3222 133.022 14.3213C133.023 14.3204 133.026 14.3168 133.029 14.3076C133.033 14.2957 133.037 14.2784 133.041 14.2549C133.048 14.2079 133.052 14.1415 133.052 14.0557V12.2236C133.052 12.138 133.048 12.0723 133.041 12.0254C133.037 12.002 133.033 11.9846 133.029 11.9727C133.026 11.9639 133.023 11.9601 133.022 11.959C133.021 11.9581 133.017 11.956 133.009 11.9531C132.997 11.9489 132.979 11.944 132.956 11.9404C132.909 11.9332 132.843 11.9297 132.758 11.9297H126.286C126.189 11.9297 126.096 11.8901 126.009 11.8203L126.003 11.8164V11.8154C125.93 11.7421 125.889 11.6555 125.889 11.5576V10.0107C125.89 9.91246 125.93 9.83073 126.009 9.77148L126.075 9.72559C126.142 9.68514 126.213 9.66309 126.286 9.66309H134.233Z" fill="#101010" stroke="#101010" stroke-width="0.125"/>
<path d="M119.542 8.6875C119.654 8.68756 119.75 8.716 119.817 8.7832C119.884 8.85061 119.913 8.94683 119.913 9.05957V17.3721H123.086C123.183 17.3721 123.269 17.4111 123.341 17.4824C123.43 17.5388 123.482 17.6188 123.482 17.7207V19.3857C123.482 19.499 123.434 19.5932 123.344 19.667L123.345 19.668C123.272 19.7415 123.185 19.7812 123.086 19.7812H119.913V31.0215C119.913 31.1342 119.884 31.2305 119.817 31.2979C119.75 31.3649 119.654 31.3935 119.542 31.3936H117.423C117.311 31.3935 117.214 31.3652 117.147 31.2979C117.08 31.2305 117.051 31.1342 117.051 31.0215V9.05957C117.051 8.94693 117.08 8.8506 117.147 8.7832C117.214 8.71582 117.311 8.68752 117.423 8.6875H119.542ZM107.789 9.85352L109.907 9.9248H109.906C110.009 9.92524 110.096 9.97813 110.167 10.0674H110.167C110.239 10.1425 110.276 10.2355 110.276 10.3438C110.276 11.0706 110.259 11.7623 110.223 12.418L110.181 13.0615C110.118 13.8835 110.014 14.6819 109.873 15.457C110.03 16.1946 110.274 16.9325 110.604 17.6709C110.936 18.4135 111.323 19.1328 111.765 19.8281L112.103 20.3291C112.447 20.8207 112.808 21.2854 113.187 21.7236L113.577 22.1348C113.964 22.531 114.346 22.8832 114.724 23.1904C114.861 23.2931 114.942 23.4175 114.952 23.5635C114.961 23.7071 114.9 23.859 114.785 24.0156L114.783 24.0186L114.782 24.0176L113.786 25.2275C113.695 25.3539 113.568 25.4257 113.409 25.4434L113.41 25.4443C113.261 25.4628 113.103 25.4064 112.938 25.291L112.935 25.2881C112.552 24.9846 112.145 24.6096 111.715 24.1641C111.286 23.7184 110.872 23.2406 110.474 22.7314L110.472 22.7305C110.186 22.3369 109.913 21.9387 109.654 21.5361L109.399 21.1318C109.093 20.622 108.842 20.1302 108.642 19.6592C108.369 20.2821 108.064 20.8922 107.722 21.4873C107.356 22.1236 106.966 22.7279 106.552 23.3008V23.3018C106.139 23.8585 105.709 24.3837 105.263 24.877C104.941 25.2354 104.618 25.5584 104.294 25.8457L103.971 26.1211C103.814 26.2456 103.655 26.312 103.497 26.3076C103.338 26.3031 103.191 26.2278 103.056 26.0938L101.938 25.0469L101.937 25.0459C101.817 24.9256 101.756 24.7909 101.77 24.6445C101.784 24.5011 101.869 24.3595 102.008 24.2197L102.01 24.2178C103.037 23.2855 103.914 22.2506 104.641 21.1133C105.368 19.9754 105.952 18.758 106.395 17.4619C106.585 16.8929 106.743 16.3322 106.87 15.7793V15.7783C107.012 15.2094 107.123 14.6401 107.202 14.0713C107.281 13.4863 107.336 12.8854 107.368 12.2686C107.399 11.6357 107.407 10.971 107.391 10.2744V10.2725C107.391 10.162 107.429 10.0661 107.504 9.99023C107.59 9.90422 107.685 9.85358 107.787 9.85352H107.789Z" fill="#101010" stroke="#101010" stroke-width="0.125"/>
<path d="M97.1411 8.6875C97.2537 8.68755 97.3501 8.71585 97.4175 8.7832C97.4847 8.8506 97.5122 8.94698 97.5122 9.05957V17.3965H100.686C100.783 17.3965 100.869 17.4357 100.942 17.5078C101.03 17.5642 101.082 17.6428 101.082 17.7441V19.4102C101.081 19.5234 101.033 19.6177 100.944 19.6914C100.87 19.7649 100.784 19.8057 100.686 19.8057H97.5122V31.0215C97.5122 31.1341 97.4848 31.2305 97.4175 31.2979C97.3501 31.3652 97.2537 31.3935 97.1411 31.3936H95.0229C94.9103 31.3935 94.814 31.3652 94.7466 31.2979C94.6792 31.2305 94.6509 31.1342 94.6509 31.0215V9.05957C94.6509 8.94695 94.6793 8.8506 94.7466 8.7832C94.814 8.71583 94.9103 8.68753 95.0229 8.6875H97.1411ZM89.5024 10.4248C89.8467 10.4248 90.133 10.4568 90.3589 10.5225C90.5846 10.5881 90.7557 10.6886 90.8618 10.8301H90.8608C91.0799 11.1008 91.1831 11.5307 91.1831 12.1055V17.3877C91.1831 17.9949 91.0565 18.4314 90.7817 18.6719L90.7808 18.6709C90.5243 18.9091 90.0762 19.0205 89.4556 19.0205H83.8159C83.7149 19.0205 83.6505 19.0455 83.6108 19.085C83.5712 19.1246 83.5454 19.1896 83.5454 19.291V23.0508C83.5455 23.2182 83.5766 23.3134 83.6196 23.3594C83.667 23.3926 83.7592 23.416 83.9116 23.416H83.9136C84.6257 23.4477 85.3542 23.4562 86.0981 23.4404L87.2329 23.3867C87.6092 23.3669 87.9836 23.3451 88.356 23.3213L89.4839 23.2139C89.8563 23.1743 90.2249 23.1315 90.5894 23.084C91.1359 23.0127 91.6599 22.9318 92.1616 22.8428L92.6558 22.751C92.7957 22.7168 92.9245 22.7336 93.0356 22.8076L93.0347 22.8086C93.1296 22.8522 93.1981 22.9243 93.2407 23.0225L93.2759 23.1318L93.2769 23.1357V23.1367L93.4907 24.5635V24.5654C93.5091 24.7126 93.4623 24.8372 93.3501 24.9307L93.3491 24.9316C93.2612 25.002 93.1491 25.0526 93.0161 25.0859H93.0142C92.3138 25.2451 91.4713 25.3886 90.4868 25.5156H90.4858C89.5171 25.6268 88.5321 25.7138 87.5317 25.7773C86.5475 25.8408 85.6029 25.8806 84.6978 25.8965C83.8085 25.9124 83.0995 25.8965 82.5728 25.8486C81.8727 25.785 81.3719 25.6334 81.0864 25.3818L81.0845 25.3799C80.8116 25.1239 80.6841 24.6813 80.6841 24.0732V18.3633L80.6909 18.1523C80.721 17.6781 80.8564 17.3169 81.1079 17.0801L81.1099 17.0791C81.4111 16.8114 81.8489 16.6826 82.4126 16.6826H88.0757C88.1366 16.6826 88.1865 16.6789 88.2251 16.6719C88.2587 16.6657 88.2809 16.6564 88.2954 16.6484C88.3066 16.6353 88.32 16.6119 88.3296 16.5703C88.34 16.525 88.3462 16.4644 88.3462 16.3877V13.0566C88.3462 12.9955 88.3415 12.9459 88.3345 12.9072C88.3274 12.8684 88.3182 12.844 88.3091 12.8301C88.3062 12.8258 88.2929 12.8124 88.2505 12.8018C88.21 12.7916 88.1524 12.7862 88.0757 12.7861H81.2222C81.1254 12.7861 81.0328 12.7472 80.9458 12.6777L80.9399 12.6729C80.8665 12.5994 80.8267 12.5121 80.8267 12.4141V10.7725C80.8267 10.6736 80.8677 10.5916 80.9468 10.5322C81.0335 10.4632 81.1257 10.4249 81.2222 10.4248H89.5024Z" fill="#101010" stroke="#101010" stroke-width="0.125"/>
<path d="M74.7637 8.6875C74.8763 8.68752 74.9727 8.71582 75.04 8.7832C75.1073 8.8506 75.1357 8.94694 75.1357 9.05957V17.3965H78.3086C78.4057 17.3965 78.4915 17.4358 78.5645 17.5078C78.6527 17.5642 78.7041 17.6427 78.7041 17.7441V19.4102C78.704 19.5234 78.656 19.6177 78.5664 19.6914C78.4929 19.7648 78.4067 19.8057 78.3086 19.8057H75.1357V31.0215C75.1357 31.1342 75.1074 31.2305 75.04 31.2979C74.9727 31.3652 74.8764 31.3935 74.7637 31.3936H72.6455C72.5331 31.3935 72.4374 31.3649 72.3701 31.2979C72.3027 31.2305 72.2744 31.1342 72.2744 31.0215V9.05957C72.2744 8.94683 72.3027 8.85061 72.3701 8.7832C72.4375 8.716 72.533 8.68755 72.6455 8.6875H74.7637ZM61.1299 10.0674C61.2407 10.0675 61.3332 10.1142 61.4062 10.2002C61.4958 10.2718 61.5487 10.3596 61.5488 10.4629V21.9316C61.5488 22.0074 61.5569 22.0668 61.5703 22.1104C61.5825 22.1497 61.599 22.1725 61.6152 22.1865C61.6687 22.2116 61.7669 22.2347 61.9189 22.25C62.4869 22.2973 63.1274 22.3136 63.8389 22.2979C64.567 22.2662 65.3114 22.211 66.0713 22.1318L67.2236 21.9775C67.6036 21.9221 67.9795 21.8621 68.3516 21.7988L69.4502 21.5791C69.8026 21.5039 70.1412 21.4268 70.4658 21.3477L70.4697 21.3467C70.6513 21.3138 70.802 21.3421 70.8867 21.4648C70.9484 21.5275 70.9972 21.5955 71.0322 21.6689L71.0635 21.7461L71.0654 21.7529L71.3262 23.0811L71.3418 23.1787C71.345 23.2747 71.3107 23.365 71.2422 23.4473C71.153 23.5543 71.0296 23.6229 70.877 23.6572C70.2877 23.8165 69.5406 23.976 68.6357 24.1348H68.6348C67.7296 24.2777 66.7841 24.4055 65.7998 24.5166C64.8153 24.6278 63.8465 24.7072 62.8936 24.7549H62.8926C61.9552 24.7867 61.1511 24.7708 60.4814 24.707H60.4805C59.8545 24.6428 59.3928 24.4565 59.1084 24.1387C58.8255 23.8225 58.6875 23.3854 58.6875 22.8359V10.4629C58.6876 10.365 58.7275 10.2785 58.8008 10.2051C58.8869 10.119 58.9813 10.0674 59.083 10.0674H61.1299Z" fill="#101010" stroke="#101010" stroke-width="0.125"/>
</svg>
