<svg width="100" height="100" viewBox="0 0 100 100" fill="none" xmlns="http://www.w3.org/2000/svg">
<rect width="100" height="100" fill="#D0D6E1"/>
<rect width="2161" height="2892" transform="translate(-1031 -1984)" fill="white"/>
<rect x="-951" y="-312" width="2001" height="1160" rx="8" fill="#EEF2F7"/>
<rect width="1921" height="1080" transform="translate(-911 -272)" fill="white"/>
<path d="M-910 -160C-910 -182.091 -892.091 -200 -870 -200H1010V808H-910V-160Z" fill="white"/>
<path d="M46.5433 10.3896C48.0796 7.64795 51.9204 7.64795 53.4567 10.3897L93.2093 81.3312C94.7456 84.0729 92.8252 87.5 89.7525 87.5H10.2475C7.17479 87.5 5.25439 84.0729 6.79072 81.3312L46.5433 10.3896Z" fill="#DE3412"/>
<path d="M52.0835 66.6665C53.234 66.6666 54.1665 67.5999 54.1665 68.7505V72.9165C54.1665 74.067 53.234 75.0004 52.0835 75.0005H47.9165C46.766 75.0004 45.8335 74.067 45.8335 72.9165V68.7505C45.8335 67.5999 46.766 66.6666 47.9165 66.6665H52.0835ZM52.0835 33.3335C53.234 33.3335 54.1663 34.2661 54.1665 35.4165V60.4165C54.1665 61.5671 53.2341 62.5005 52.0835 62.5005H47.9165C46.7661 62.5003 45.8335 61.567 45.8335 60.4165V35.4165C45.8337 34.2662 46.7662 33.3337 47.9165 33.3335H52.0835Z" fill="white"/>
</svg>
