<svg width="20" height="18" viewBox="0 0 20 18" fill="none" xmlns="http://www.w3.org/2000/svg">
<path d="M19.1992 12.7002C19.6409 12.7002 19.9988 13.0584 19.999 13.5V16.7002C19.999 17.142 19.641 17.5 19.1992 17.5H0.799805C0.587668 17.4999 0.384364 17.4156 0.234375 17.2656C0.0844195 17.1156 -5.17581e-05 16.9123 2.37931e-08 16.7002L0.000976586 13.5C0.00119008 13.0583 0.359108 12.7002 0.800781 12.7002C1.24261 12.7003 1.60069 13.0591 1.60059 13.501V15.9004H18.3994V13.5C18.3996 13.0584 18.7575 12.7002 19.1992 12.7002ZM9.99902 0.5C10.4408 0.5 10.7987 0.858067 10.7988 1.2998V11.0137L14.4229 7.24512C14.7291 6.92698 15.2353 6.91751 15.5537 7.22363C15.872 7.52984 15.8822 8.03605 15.5762 8.35449L10.5762 13.5547C10.4253 13.7116 10.2166 13.7998 9.99902 13.7998C9.7816 13.7998 9.57362 13.7113 9.42285 13.5547L4.42285 8.35449C4.11673 8.03613 4.1262 7.5299 4.44434 7.22363C4.7628 6.91742 5.26993 6.92669 5.57617 7.24512L9.19922 11.0137V1.2998C9.19932 0.858132 9.55735 0.500106 9.99902 0.5Z" fill="#1E2124"/>
</svg>
