<svg width="16" height="18" viewBox="0 0 16 18" fill="none" xmlns="http://www.w3.org/2000/svg">
<path d="M7.88915 9.53848C5.07526 9.53848 2.69337 10.9833 1.89004 12.978C1.55713 13.8047 2.2112 14.6069 3.07782 14.8146L3.26141 14.8586C6.38955 15.6085 9.65244 15.5924 12.7731 14.8119C13.5989 14.6053 14.2187 13.8392 13.9143 13.0443C13.1374 11.0153 10.7341 9.53848 7.88915 9.53848Z" fill="#063A74"/>
<path d="M11.9907 9.27695C10.3357 9.27695 8.99072 10.6012 8.99072 12.2308C8.99072 13.8603 10.3357 15.1846 11.9907 15.1846C13.6457 15.1846 14.9907 13.8603 14.9907 12.2308C14.9907 10.6012 13.6457 9.27695 11.9907 9.27695Z" fill="#1369F0"/>
<path d="M10.6709 12.3084L11.5254 13.2462L13.1219 11.5661" stroke="white" stroke-width="0.672" stroke-linecap="round" stroke-linejoin="round"/>
<path d="M8.02577 2.00003C6.12812 2.00003 4.58594 3.51849 4.58594 5.38695C4.58594 7.2554 6.12812 8.77386 8.02577 8.77386C9.92343 8.77386 11.4656 7.2554 11.4656 5.38695C11.4656 3.51849 9.92343 2.00003 8.02577 2.00003Z" fill="#063A74"/>
</svg>
