<svg width="20" height="18" viewBox="0 0 20 18" fill="none" xmlns="http://www.w3.org/2000/svg">
<path fill-rule="evenodd" clip-rule="evenodd" d="M9.85097 1.92396C12.0162 -0.241259 15.5267 -0.241256 17.6919 1.92397C19.8572 4.0892 19.8572 7.59973 17.6919 9.76495L9.99112 17.4657C9.6787 17.7782 9.17216 17.7782 8.85975 17.4657C8.54733 17.1533 8.54733 16.6468 8.85975 16.3344L16.5606 8.63358C18.1009 7.0932 18.1009 4.59573 16.5606 3.05534C15.0202 1.51496 12.5228 1.51494 10.9823 3.05534L2.92114 11.1165C2.92113 11.1165 2.92114 11.1165 2.92114 11.1165C1.95756 12.0801 1.95756 13.6424 2.92114 14.606C3.88472 15.5696 5.44699 15.5696 6.41057 14.606L13.643 7.37352C13.9898 7.02673 13.9898 6.46445 13.643 6.11766C13.2963 5.77089 12.734 5.77089 12.3872 6.11766L5.51512 12.9898C5.2027 13.3022 4.69617 13.3022 4.38375 12.9898C4.07133 12.6774 4.07133 12.1708 4.38375 11.8584L11.2558 4.98632C11.2558 4.98632 11.2558 4.98631 11.2558 4.98632C12.2274 4.01468 13.8029 4.01468 14.7744 4.98632C15.746 5.95794 15.746 7.53324 14.7744 8.50486L7.54195 15.7374C5.95352 17.3258 3.37818 17.3258 1.78975 15.7374C0.20135 14.1489 0.201348 11.5736 1.78975 9.98516L9.85097 1.92396Z" fill="#58616A"/>
</svg>
