<svg width="16" height="16" viewBox="0 0 16 16" fill="none" xmlns="http://www.w3.org/2000/svg">
<path d="M2.23229 6.93375L7.56563 2.37079C7.81513 2.15733 8.18292 2.15733 8.43242 2.37079L13.7658 6.93375C13.9138 7.06041 13.999 7.24549 13.999 7.44032V13.4667C13.999 13.8349 13.7005 14.1333 13.3324 14.1333H10.1657C9.7975 14.1333 9.49902 13.8349 9.49902 13.4667V10.4668C9.49902 10.2827 9.34978 10.1335 9.16569 10.1335H6.83236C6.64826 10.1335 6.49902 10.2827 6.49902 10.4668V13.4667C6.49902 13.8349 6.20055 14.1333 5.83236 14.1333H2.66569C2.2975 14.1333 1.99902 13.8349 1.99902 13.4667V7.44032C1.99902 7.24549 2.08425 7.06041 2.23229 6.93375Z" fill="#8A949E"/>
</svg>
