<svg width="16" height="16" viewBox="0 0 16 16" fill="none" xmlns="http://www.w3.org/2000/svg">
<path d="M0.5 8C0.5 12.1421 3.85786 15.5 8 15.5C12.1421 15.5 15.5 12.1421 15.5 8C15.5 3.85786 12.1421 0.5 8 0.5C3.85786 0.5 0.5 3.85786 0.5 8Z" fill="#DE3412"/>
<path d="M9.82661 5.32588C10.0609 5.09171 10.441 5.09162 10.6752 5.32588C10.9093 5.56017 10.9093 5.94027 10.6752 6.17452L8.84907 8.00069L10.6743 9.82588C10.9084 10.0602 10.9085 10.4402 10.6743 10.6745C10.44 10.9088 10.06 10.9087 9.82563 10.6745L8.00044 8.84932L6.17524 10.6745C5.94101 10.9087 5.56094 10.9086 5.32661 10.6745C5.09229 10.4402 5.09229 10.0602 5.32661 9.82588L7.1518 8.00069L5.32563 6.17452C5.09132 5.9402 5.09133 5.5602 5.32563 5.32588C5.55995 5.09157 5.93995 5.09157 6.17427 5.32588L8.00044 7.15205L9.82661 5.32588Z" fill="white"/>
</svg>
