<svg width="16" height="16" viewBox="0 0 16 16" fill="none" xmlns="http://www.w3.org/2000/svg">
<rect width="16" height="16" fill="white"/>
<path fill-rule="evenodd" clip-rule="evenodd" d="M8.38409 2.16368C8.28353 2.0591 8.14472 2 7.99964 2C7.85457 2 7.71575 2.0591 7.6152 2.16368L4.28186 5.63034C4.07771 5.84266 4.08433 6.18029 4.29665 6.38444C4.50897 6.5886 4.8466 6.58198 5.05075 6.36966L7.46631 3.85748V10.3333C7.46631 10.6279 7.70509 10.8667 7.99964 10.8667C8.29419 10.8667 8.53298 10.6279 8.53298 10.3333V3.85748L10.9485 6.36966C11.1527 6.58198 11.4903 6.5886 11.7026 6.38444C11.915 6.18029 11.9216 5.84266 11.7174 5.63034L8.38409 2.16368ZM2.40068 10.6669C2.40076 10.3724 2.16203 10.1335 1.86748 10.1335C1.57293 10.1334 1.33409 10.3721 1.33402 10.6667L1.3335 12.8C1.33346 12.9415 1.38964 13.0772 1.48966 13.1772C1.58968 13.2773 1.72536 13.3335 1.86683 13.3335H14.133C14.4275 13.3335 14.6663 13.0947 14.6663 12.8001V10.6668C14.6663 10.3722 14.4275 10.1335 14.133 10.1335C13.8384 10.1335 13.5996 10.3722 13.5996 10.6668V12.2668H2.40029L2.40068 10.6669Z" fill="#1E2124"/>
</svg>
