<svg width="12" height="12" viewBox="0 0 12 12" fill="none" xmlns="http://www.w3.org/2000/svg">
<path d="M6 0.400391C6.33137 0.400391 6.59961 0.668629 6.59961 1V5.40039H11C11.3314 5.40039 11.5996 5.66863 11.5996 6C11.5996 6.33137 11.3314 6.59961 11 6.59961H6.59961V11C6.59961 11.3314 6.33137 11.5996 6 11.5996C5.66863 11.5996 5.40039 11.3314 5.40039 11V6.59961H1C0.668629 6.59961 0.400391 6.33137 0.400391 6C0.400391 5.66863 0.668629 5.40039 1 5.40039H5.40039V1C5.40039 0.668629 5.66863 0.400391 6 0.400391Z" fill="#58616A"/>
</svg>
