<svg width="18" height="18" viewBox="0 0 18 18" fill="none" xmlns="http://www.w3.org/2000/svg">
<path d="M8.99907 4.27515C12.3885 4.2752 15.4377 6.13642 16.3907 8.66772C16.4841 8.9159 16.4982 9.19478 16.4141 9.46069C15.833 11.2966 13.5423 13.7253 8.99907 13.7253C4.43767 13.7253 2.18996 11.0601 1.60063 9.4812C1.5046 9.22389 1.50455 8.94866 1.58403 8.69897C1.99794 7.39899 3.02938 6.29385 4.33696 5.52124C5.65091 4.74496 7.28918 4.27515 8.99907 4.27515ZM8.99907 5.47534C7.50223 5.47534 6.07493 5.88728 4.94731 6.55347C3.81361 7.22326 3.02745 8.12128 2.72759 9.06323L2.72661 9.06519C3.15349 10.2032 4.97129 12.5251 8.99907 12.5251C13.0747 12.5251 14.8622 10.3846 15.2696 9.09937C15.2695 9.09808 15.2693 9.09498 15.2676 9.09058C14.5331 7.13945 12.0211 5.4754 8.99907 5.47534ZM8.99907 6.15015C10.573 6.15015 11.8494 7.42592 11.8497 8.99976C11.8497 10.5738 10.5731 11.8503 8.99907 11.8503C7.42524 11.8501 6.14946 10.5736 6.14946 8.99976C6.14967 7.42605 7.42537 6.15036 8.99907 6.15015ZM8.99907 7.35034C8.08811 7.35055 7.34987 8.0888 7.34966 8.99976C7.34966 9.9109 8.08798 10.6499 8.99907 10.6501C9.91034 10.6501 10.6495 9.91103 10.6495 8.99976C10.6493 8.08867 9.91021 7.35034 8.99907 7.35034Z" fill="#33363D"/>
</svg>
