<svg width="16" height="16" viewBox="0 0 16 16" fill="none" xmlns="http://www.w3.org/2000/svg">
<rect width="15" height="15" rx="7.5" transform="matrix(1 0 0 -1 0.5 15.5)" fill="#096AB3"/>
<path d="M7.92441 6.08076C8.42147 6.08076 8.82441 5.67782 8.82441 5.18076C8.82441 4.68371 8.42147 4.28076 7.92441 4.28076C7.42736 4.28076 7.02441 4.68371 7.02441 5.18076C7.02441 5.67782 7.42736 6.08076 7.92441 6.08076Z" fill="white"/>
<path d="M6.79941 6.82336C6.71657 6.82336 6.64941 6.89052 6.64941 6.97336V7.57336C6.64941 7.65621 6.71657 7.72336 6.79941 7.72336H7.32559C7.40843 7.72336 7.47559 7.79052 7.47559 7.87336V10.6953H6.65C6.56716 10.6953 6.5 10.7625 6.5 10.8453V11.4453C6.5 11.5282 6.56716 11.5953 6.65 11.5953H9.35C9.43284 11.5953 9.5 11.5282 9.5 11.4453V10.8453C9.5 10.7625 9.43284 10.6953 9.35 10.6953H8.82559V6.97336C8.82559 6.89052 8.75843 6.82336 8.67559 6.82336H6.79941Z" fill="white"/>
</svg>
