<svg width="16" height="16" viewBox="0 0 16 16" fill="none" xmlns="http://www.w3.org/2000/svg">
<rect x="15.5" y="0.5" width="15" height="15" rx="7.5" transform="rotate(90 15.5 0.5)" fill="#CDD1D5"/>
<path d="M10.9511 4.20088C11.1854 3.96657 11.5654 3.96657 11.7998 4.20088C12.0341 4.4352 12.0341 4.8152 11.7998 5.04952L8.84859 8.00069L11.7988 10.9509C12.033 11.1852 12.0331 11.5652 11.7988 11.7995C11.5645 12.0338 11.1845 12.0337 10.9502 11.7995L7.99995 8.84932L5.04976 11.7995C4.81544 12.0337 4.43541 12.0338 4.20113 11.7995C3.96684 11.5652 3.96691 11.1852 4.20113 10.9509L7.15132 8.00069L4.20015 5.04952C3.96584 4.8152 3.96584 4.4352 4.20015 4.20088C4.43446 3.96657 4.81447 3.96657 5.04878 4.20088L7.99995 7.15205L10.9511 4.20088Z" fill="#33363D"/>
</svg>
