<svg width="20" height="20" viewBox="0 0 20 20" fill="none" xmlns="http://www.w3.org/2000/svg">
<rect width="16.6667" height="16.6667" rx="8.33333" transform="matrix(1 0 0 -1 1.66602 18.3333)" fill="#052B57"/>
<path d="M9.91569 7.86743C10.468 7.86743 10.9157 7.41972 10.9157 6.86743C10.9157 6.31515 10.468 5.86743 9.91569 5.86743C9.36341 5.86743 8.91569 6.31515 8.91569 6.86743C8.91569 7.41972 9.36341 7.86743 9.91569 7.86743Z" fill="white"/>
<path d="M8.66569 8.69255C8.57364 8.69255 8.49902 8.76716 8.49902 8.85921V9.52588C8.49902 9.61793 8.57364 9.69255 8.66569 9.69255H9.25033C9.34237 9.69255 9.41699 9.76716 9.41699 9.85921V12.9947H8.49967C8.40763 12.9947 8.33301 13.0693 8.33301 13.1614V13.828C8.33301 13.9201 8.40763 13.9947 8.49967 13.9947H11.4997C11.5917 13.9947 11.6663 13.9201 11.6663 13.828V13.1614C11.6663 13.0693 11.5917 12.9947 11.4997 12.9947H10.917V8.85921C10.917 8.76716 10.8424 8.69255 10.7503 8.69255H8.66569Z" fill="white"/>
</svg>
