<svg width="100" height="100" viewBox="0 0 100 100" fill="none" xmlns="http://www.w3.org/2000/svg">
<path d="M53.2857 7.28571V12.2143H4V7.28571C4 5.48952 5.48952 4 7.28571 4H50C51.7962 4 53.2857 5.48952 53.2857 7.28571Z" fill="#464C53"/>
<path d="M53.2857 12.2144V66.4286C53.2857 68.2248 51.7962 69.7144 50 69.7144H7.28571C5.48952 69.7144 4 68.2248 4 66.4286V12.2144H53.2857Z" fill="#CDD1D5"/>
<path d="M43.4286 27.8321H13.8572C12.9591 27.8321 12.2144 27.0873 12.2144 26.1892C12.2144 25.2911 12.9591 24.5464 13.8572 24.5464H43.4286C44.3267 24.5464 45.0715 25.2911 45.0715 26.1892C45.0715 27.0873 44.3267 27.8321 43.4286 27.8321ZM43.4286 37.6892H13.8572C12.9591 37.6892 12.2144 36.9445 12.2144 36.0464C12.2144 35.1483 12.9591 34.4035 13.8572 34.4035H43.4286C44.3267 34.4035 45.0715 35.1483 45.0715 36.0464C45.0715 36.9445 44.3267 37.6892 43.4286 37.6892ZM43.4286 47.5464H13.8572C12.9591 47.5464 12.2144 46.8016 12.2144 45.9035C12.2144 45.0054 12.9591 44.2607 13.8572 44.2607H43.4286C44.3267 44.2607 45.0715 45.0054 45.0715 45.9035C45.0715 46.8016 44.3267 47.5464 43.4286 47.5464ZM43.4286 57.4035H13.8572C12.9591 57.4035 12.2144 56.6588 12.2144 55.7607C12.2144 54.8626 12.9591 54.1178 13.8572 54.1178H43.4286C44.3267 54.1178 45.0715 54.8626 45.0715 55.7607C45.0715 56.6588 44.3267 57.4035 43.4286 57.4035Z" fill="#B1B8BE"/>
<path d="M96.0001 33.5714V38.4999H46.7144V33.5714C46.7144 31.7752 48.2039 30.2856 50.0001 30.2856H92.7144C94.5105 30.2856 96.0001 31.7752 96.0001 33.5714Z" fill="#464C53"/>
<path d="M96.0001 38.5V92.7143C96.0001 94.5105 94.5105 96 92.7144 96H50.0001C48.2039 96 46.7144 94.5105 46.7144 92.7143V38.5H96.0001Z" fill="#CDD1D5"/>
<path d="M86.1428 54.1177H56.5713C55.6732 54.1177 54.9285 53.373 54.9285 52.4749C54.9285 51.5768 55.6732 50.832 56.5713 50.832H86.1428C87.0408 50.832 87.7856 51.5768 87.7856 52.4749C87.7856 53.373 87.0408 54.1177 86.1428 54.1177ZM86.1428 63.9749H56.5713C55.6732 63.9749 54.9285 63.2301 54.9285 62.332C54.9285 61.4339 55.6732 60.6892 56.5713 60.6892H86.1428C87.0408 60.6892 87.7856 61.4339 87.7856 62.332C87.7856 63.2301 87.0408 63.9749 86.1428 63.9749ZM86.1428 73.832H56.5713C55.6732 73.832 54.9285 73.0873 54.9285 72.1892C54.9285 71.2911 55.6732 70.5463 56.5713 70.5463H86.1428C87.0408 70.5463 87.7856 71.2911 87.7856 72.1892C87.7856 73.0873 87.0408 73.832 86.1428 73.832ZM86.1428 83.6892H56.5713C55.6732 83.6892 54.9285 82.9444 54.9285 82.0463C54.9285 81.1482 55.6732 80.4035 56.5713 80.4035H86.1428C87.0408 80.4035 87.7856 81.1482 87.7856 82.0463C87.7856 82.9444 87.0408 83.6892 86.1428 83.6892Z" fill="#B1B8BE"/>
<path d="M74.6429 22.0714V26.9999H25.3572V22.0714C25.3572 20.2752 26.8467 18.7856 28.6429 18.7856H71.3572C73.1534 18.7856 74.6429 20.2752 74.6429 22.0714Z" fill="#8A949E"/>
<path d="M74.6429 27V81.2143C74.6429 83.0105 73.1534 84.5 71.3572 84.5H28.6429C26.8467 84.5 25.3572 83.0105 25.3572 81.2143V27H74.6429Z" fill="#E6E8EA"/>
<path d="M48.7358 40.1929C49.2977 39.1902 50.7023 39.1902 51.2642 40.1929L65.8023 66.1373C66.3641 67.14 65.6618 68.3933 64.5381 68.3933H35.4619C34.3382 68.3933 33.6359 67.1399 34.1977 66.1373L48.7358 40.1929Z" fill="#DE3412"/>
<path d="M50.7612 60.7739C51.1819 60.7739 51.5238 61.115 51.5239 61.5356V63.0601C51.5238 63.4807 51.1819 63.8218 50.7612 63.8218H49.2378C48.8172 63.8217 48.4762 63.4807 48.4761 63.0601V61.5356C48.4762 61.115 48.8171 60.774 49.2378 60.7739H50.7612ZM50.7622 48.5835C51.1827 48.5837 51.5238 48.9247 51.5239 49.3452V58.4878C51.5239 58.9084 51.1828 59.2503 50.7622 59.2505H49.2378C48.8171 59.2504 48.4761 58.9085 48.4761 58.4878V49.3452C48.4762 48.9246 48.8172 48.5836 49.2378 48.5835H50.7622Z" fill="white"/>
</svg>
