<svg width="16" height="16" viewBox="0 0 16 16" fill="none" xmlns="http://www.w3.org/2000/svg">
<rect width="16" height="16" fill="white"/>
<path d="M8.5332 0.733398C8.89666 0.733398 9.20558 0.732307 9.45801 0.75293C9.71729 0.774118 9.96978 0.820569 10.2109 0.943359C10.5746 1.12867 10.8703 1.4254 11.0557 1.78906C11.1785 2.03018 11.2249 2.28275 11.2461 2.54199C11.2654 2.77867 11.2666 3.06508 11.2666 3.39941H14C14.3313 3.39941 14.5994 3.66878 14.5996 4C14.5994 4.33121 14.3313 4.59961 14 4.59961H13.2666V11.4658C13.2666 12.0158 13.267 12.4656 13.2373 12.8291C13.207 13.1994 13.1425 13.5343 12.9834 13.8467C12.7341 14.3358 12.3358 14.7332 11.8467 14.9824C11.5341 15.1416 11.1997 15.207 10.8291 15.2373C10.4655 15.267 10.0169 15.2666 9.4668 15.2666H6.5332C5.98313 15.2666 5.53447 15.267 5.1709 15.2373C4.80035 15.207 4.46587 15.1416 4.15332 14.9824C3.66416 14.7332 3.26585 14.3358 3.0166 13.8467C2.85748 13.5343 2.79298 13.1994 2.7627 12.8291C2.73301 12.4656 2.7334 12.0158 2.7334 11.4658V4.59961H2C1.66875 4.59961 1.40058 4.33121 1.40039 4C1.40057 3.66878 1.66874 3.39941 2 3.39941H4.7334C4.73342 3.06508 4.73458 2.77867 4.75391 2.54199C4.77511 2.28275 4.82154 2.03018 4.94434 1.78906C5.1297 1.4254 5.42537 1.12867 5.78906 0.943359C6.03022 0.820569 6.28271 0.774118 6.54199 0.75293C6.79442 0.732307 7.10334 0.733398 7.4668 0.733398H8.5332ZM3.93359 11.4658C3.93359 12.0356 3.93422 12.4281 3.95898 12.7314C3.98319 13.0273 4.02733 13.1866 4.08594 13.3018C4.2201 13.5651 4.43399 13.7798 4.69727 13.9141C4.81249 13.9728 4.9722 14.0168 5.26855 14.041C5.57194 14.0658 5.96332 14.0664 6.5332 14.0664H9.4668C10.0367 14.0664 10.4281 14.0658 10.7314 14.041C11.0278 14.0168 11.1875 13.9728 11.3027 13.9141C11.566 13.7798 11.7799 13.5651 11.9141 13.3018C11.9727 13.1866 12.0168 13.0273 12.041 12.7314C12.0658 12.4281 12.0664 12.0356 12.0664 11.4658V4.59961H3.93359V11.4658ZM6.66699 7.06641C6.99801 7.06658 7.26628 7.33503 7.2666 7.66602V11C7.26638 11.3311 6.99808 11.5994 6.66699 11.5996C6.33576 11.5996 6.06663 11.3312 6.06641 11V7.66602C6.06673 7.33492 6.33582 7.06641 6.66699 7.06641ZM9.33301 7.06641C9.66418 7.06641 9.93327 7.33492 9.93359 7.66602V11C9.93337 11.3312 9.66424 11.5996 9.33301 11.5996C9.00192 11.5994 8.73362 11.3311 8.7334 11V7.66602C8.73372 7.33503 9.00199 7.06658 9.33301 7.06641ZM7.4668 1.93262C7.08355 1.93262 6.83188 1.93351 6.63965 1.94922C6.45512 1.96431 6.37797 1.99037 6.33398 2.0127C6.19625 2.08288 6.084 2.19537 6.01367 2.33301C5.9913 2.37691 5.96436 2.45466 5.94922 2.63965C5.93447 2.82038 5.9337 3.05372 5.93359 3.39941H10.0664C10.0663 3.05372 10.0655 2.82038 10.0508 2.63965C10.0356 2.45466 10.0087 2.37691 9.98633 2.33301C9.916 2.19537 9.80375 2.08288 9.66602 2.0127C9.62203 1.99037 9.54488 1.96431 9.36035 1.94922C9.16812 1.93351 8.91645 1.93262 8.5332 1.93262H7.4668Z" fill="#1E2124"/>
</svg>
