<svg width="92" height="92" viewBox="0 0 92 92" fill="none" xmlns="http://www.w3.org/2000/svg">
<g clip-path="url(#clip0_1988_6435)">
<path d="M0 84.9246L8.25809 76.6665L15.3333 83.7417L7.07524 91.9998" fill="#CDD1D5"/>
<path d="M22.3866 43.6122L48.3657 69.5912C49.0009 70.2265 49.0009 71.2779 48.3657 71.9131L45.9781 74.3007C45.3428 74.936 44.2914 74.936 43.6562 74.3007L17.6771 48.3217C17.0419 47.6865 17.0419 46.635 17.6771 45.9998L20.0647 43.6122C20.7 42.9769 21.7514 42.9769 22.3866 43.6122Z" fill="#CDD1D5"/>
<path d="M26.1105 85.5383L15.3552 83.7422L8.27998 76.6669L6.48379 65.9117C6.13331 63.7869 6.83426 61.6184 8.34569 60.085L18.9038 49.5488L42.4952 73.1403L31.959 83.6764C30.4257 85.2098 28.2571 85.9107 26.1324 85.5383H26.1105Z" fill="#6D7882"/>
<path d="M41.247 36.5367L41.3128 36.6024C42.6051 37.8729 42.6051 39.9757 41.3128 41.2462L30.667 51.8919L25.9575 47.1824L36.6032 36.5367C37.8737 35.2443 39.9766 35.2443 41.247 36.5367Z" fill="#CDD1D5"/>
<path d="M55.3974 50.6653L55.4631 50.7529C56.7336 52.0234 56.7336 54.1262 55.4631 55.3967L44.8174 66.0424L40.1079 61.311L50.7536 50.6653C52.0241 49.3948 54.127 49.3948 55.3974 50.6653Z" fill="#CDD1D5"/>
<path d="M69.6137 48.3867L43.6346 22.4076C42.9994 21.7724 42.9994 20.721 43.6346 20.0857L46.0223 17.6981C46.6575 17.0629 47.687 17.0629 48.3442 17.6981L74.3232 43.6772C74.9584 44.3124 74.9584 45.3638 74.3232 45.9991L71.9356 48.3867C71.3003 49.0219 70.2489 49.0219 69.6137 48.3867Z" fill="#CDD1D5"/>
<path d="M65.8896 6.46196L76.6449 8.25815L83.7201 15.3334L85.5163 26.0886C85.8668 28.2134 85.1658 30.382 83.6544 31.9153L73.0963 42.4515L49.5049 18.8601L60.0411 8.32387C61.5744 6.79053 63.743 6.08958 65.8677 6.46196H65.8896Z" fill="#6D7882"/>
<path d="M91.9998 7.07524L83.7417 15.3333L76.6665 8.25809L84.9246 0" fill="#CDD1D5"/>
<path d="M74.8706 68.2987C74.4325 68.2987 74.0382 68.1234 73.7096 67.8387L69.0001 63.1291C68.3649 62.4939 68.3649 61.4644 69.0001 60.8072C69.6353 60.172 70.6868 60.172 71.322 60.8072L76.0315 65.5168C76.6668 66.152 76.6668 67.2034 76.0315 67.8387C75.703 68.1672 75.2868 68.2987 74.8706 68.2987ZM82.0992 57.7625C81.8582 57.7625 81.6611 57.7187 81.4201 57.6091L75.3306 54.893C74.4982 54.5206 74.1258 53.5349 74.4982 52.7244C74.8706 51.892 75.8563 51.5196 76.6668 51.892L82.7563 54.6082C83.5887 54.9587 83.9611 55.9663 83.5887 56.7768C83.3039 57.3901 82.7125 57.7406 82.0773 57.7406L82.0992 57.7625ZM64.3344 75.5272C63.6992 75.5272 63.1077 75.1768 62.823 74.5634L60.1068 68.4739C59.7563 67.6415 60.1068 66.6558 60.9392 66.3053C61.7715 65.9549 62.7353 66.3053 63.1077 67.1377L65.8239 73.2272C66.1963 74.0596 65.8239 75.0453 64.9915 75.3958C64.7725 75.4834 64.5534 75.5491 64.3125 75.5491L64.3344 75.5272ZM30.0534 23.4815C29.6153 23.4815 29.2211 23.3063 28.8706 22.9996L24.1611 18.2901C23.5258 17.6549 23.5258 16.6034 24.1611 15.9682C24.7963 15.333 25.8477 15.333 26.483 15.9682L31.1925 20.6777C31.8277 21.313 31.8277 22.3644 31.1925 22.9996C30.8639 23.3282 30.4477 23.4815 30.0315 23.4815H30.0534ZM38.5963 17.633C37.9611 17.633 37.3696 17.2825 37.1068 16.6691L34.3906 10.5796C34.0182 9.74724 34.3906 8.76152 35.223 8.41105C36.0553 8.03867 37.0411 8.41105 37.3915 9.24343L40.1077 15.333C40.4582 16.1653 40.1077 17.151 39.2753 17.5015C39.0563 17.5891 38.8373 17.6549 38.5963 17.6549V17.633ZM24.2049 32.0244C23.9639 32.0244 23.7668 31.9806 23.5258 31.871L17.4363 29.1549C16.6039 28.8044 16.2315 27.8187 16.6039 26.9863C16.9763 26.1539 17.9401 25.7815 18.7725 26.1539L24.862 28.8701C25.6944 29.2425 26.0668 30.2063 25.6944 31.0387C25.4096 31.652 24.8182 32.0025 24.2049 32.0025V32.0244Z" fill="#CDD1D5"/>
</g>
<defs>
<clipPath id="clip0_1988_6435">
<rect width="92" height="92" fill="white"/>
</clipPath>
</defs>
</svg>
