<svg width="17" height="16" viewBox="0 0 17 16" fill="none" xmlns="http://www.w3.org/2000/svg">
<path d="M7.01294 3.29801L6.0022 3.29801C5.49219 3.29801 5.14857 3.2975 4.88374 3.31914C4.62644 3.34016 4.50098 3.37875 4.41692 3.42158C4.20362 3.53033 4.03036 3.70364 3.92158 3.91692C3.87876 4.00097 3.84016 4.12652 3.81913 4.38374C3.7975 4.64855 3.79696 4.99226 3.79696 5.5022L3.79696 10.4978C3.79696 11.0078 3.7975 11.3514 3.81913 11.6163C3.84016 11.8736 3.87875 11.999 3.92158 12.0831C4.03035 12.2964 4.20362 12.4697 4.41692 12.5784C4.50098 12.6212 4.62645 12.6598 4.88374 12.6809C5.14857 12.7025 5.49219 12.703 6.0022 12.703L10.9978 12.703C11.5077 12.703 11.8514 12.7025 12.1163 12.6809C12.3735 12.6598 12.499 12.6212 12.5831 12.5784C12.7964 12.4696 12.9697 12.2964 13.0784 12.0831C13.1213 11.999 13.1598 11.8736 13.1809 11.6163C13.2025 11.3514 13.202 11.0078 13.202 10.4978L13.202 9.48706C13.202 9.12868 13.4931 8.83753 13.8515 8.83753C14.2098 8.83759 14.5 9.12872 14.5 9.48706L14.5 10.4978C14.5 10.9864 14.5006 11.392 14.4736 11.7219C14.446 12.0594 14.3865 12.3749 14.2349 12.6724C14.0017 13.1299 13.6298 13.5017 13.1724 13.7349C12.875 13.8865 12.5594 13.946 12.2219 13.9736C11.892 14.0005 11.4864 14 10.9978 14L6.0022 14C5.51357 14 5.10804 14.0006 4.77812 13.9736C4.44055 13.946 4.12508 13.8865 3.82758 13.7349C3.37013 13.5017 2.99828 13.1299 2.76509 12.6724C2.61351 12.3749 2.55399 12.0594 2.5264 11.7219C2.49945 11.392 2.5 10.9864 2.5 10.4978L2.5 5.5022C2.5 5.01362 2.49945 4.60802 2.5264 4.27812C2.55399 3.9406 2.61353 3.62505 2.76509 3.32759C2.99829 2.87016 3.37014 2.49826 3.82758 2.2651C4.12508 2.11351 4.44055 2.05399 4.77812 2.02641C5.10804 1.99945 5.51357 2 6.0022 2L7.01294 2C7.37128 2 7.66241 2.29016 7.66247 2.64848C7.66247 3.00686 7.37132 3.29801 7.01294 3.29801Z" fill="#6D7882"/>
<path d="M11.3631 3.40148L11.4926 3.4323L11.5871 3.47032C11.6736 3.51149 11.7382 3.56117 11.7813 3.59773C11.8331 3.64173 11.8865 3.69572 11.9221 3.73131L13.1664 4.97562C13.2019 5.01113 13.256 5.06461 13.3 5.11639C13.3366 5.15957 13.3871 5.22464 13.4284 5.31162L13.4654 5.40615L13.4972 5.53561C13.518 5.66705 13.5069 5.80243 13.4654 5.93018C13.4213 6.06563 13.3488 6.16142 13.3 6.21891C13.2559 6.27077 13.2019 6.32411 13.1664 6.35968L9.72525 9.80183C9.64159 9.88549 9.55354 9.97599 9.44987 10.0515C9.36598 10.1126 9.27536 10.1642 9.18067 10.2067C9.06379 10.2591 8.94225 10.2907 8.82823 10.3218L6.79787 10.8756C6.57942 10.9352 6.34566 10.8732 6.18548 10.7132C6.02533 10.5531 5.96259 10.3193 6.0221 10.1008L6.57593 8.07048C6.60706 7.95634 6.63848 7.83402 6.69101 7.71702C6.7335 7.62239 6.78613 7.53268 6.84719 7.44884C6.92272 7.34517 7.01322 7.25712 7.09688 7.17346L10.538 3.73131C10.5736 3.69575 10.6269 3.64176 10.6788 3.59773C10.7363 3.54889 10.8329 3.47636 10.9685 3.4323L11.098 3.40148C11.1858 3.3876 11.2753 3.38756 11.3631 3.40148ZM7.98978 8.06637C7.87988 8.17627 7.87173 8.18593 7.86751 8.19172C7.85794 8.20486 7.84953 8.21904 7.84285 8.23385C7.83992 8.24038 7.83566 8.25164 7.79456 8.40236L7.53049 9.3672L8.49634 9.10415C8.64675 9.06313 8.65731 9.05776 8.66383 9.05483C8.67873 9.04813 8.69275 9.0398 8.70596 9.03017C8.71174 9.02596 8.72184 9.01942 8.83234 8.90893L12.0721 5.66713L11.2295 4.82458L7.98978 8.06637ZM12.0854 2.1849C12.332 1.93837 12.7318 1.93837 12.9783 2.1849L14.7138 3.92037C14.96 4.16685 14.96 4.56577 14.7138 4.81225C14.4673 5.05878 14.0674 5.05878 13.8209 4.81225L12.0854 3.07678C11.8393 2.83031 11.8393 2.43137 12.0854 2.1849Z" fill="#6D7882"/>
</svg>
