<svg width="24" height="24" viewBox="0 0 24 24" fill="none" xmlns="http://www.w3.org/2000/svg">
<path d="M7.5 2H14.6C16.8402 2 17.9603 2 18.816 2.43597C19.5686 2.81947 20.1805 3.43139 20.564 4.18404C21 5.03969 21 6.15979 21 8.4V15.5M6.2 22H14.3C15.4201 22 15.9802 22 16.408 21.782C16.7843 21.5903 17.0903 21.2843 17.282 20.908C17.5 20.4802 17.5 19.9201 17.5 18.8V8.7C17.5 7.57989 17.5 7.01984 17.282 6.59202C17.0903 6.21569 16.7843 5.90973 16.408 5.71799C15.9802 5.5 15.4201 5.5 14.3 5.5H6.2C5.0799 5.5 4.51984 5.5 4.09202 5.71799C3.71569 5.90973 3.40973 6.21569 3.21799 6.59202C3 7.01984 3 7.57989 3 8.7V18.8C3 19.9201 3 20.4802 3.21799 20.908C3.40973 21.2843 3.71569 21.5903 4.09202 21.782C4.51984 22 5.0799 22 6.2 22Z" stroke="#1E2124" stroke-width="1.6" stroke-linecap="round" stroke-linejoin="round"/>
<path d="M13 10H7M9 14H7" stroke="#1E2124" stroke-width="1.6" stroke-linecap="round" stroke-linejoin="round"/>
</svg>
