<svg width="70" height="56" viewBox="0 0 70 56" fill="none" xmlns="http://www.w3.org/2000/svg">
<path d="M49.0675 22.9849C49.0675 22.9849 49.028 22.8664 49.0083 22.7874L47.9825 20.0615C47.7261 19.3899 47.2329 18.8565 46.5819 18.5602C46.1282 18.3627 45.6547 18.2837 45.1813 18.343L44.5698 17.375C44.7473 17.0392 44.8657 16.6639 44.8854 16.2491C44.9248 15.5183 44.6881 14.8269 44.1949 14.2936L42.2617 12.1405C41.5318 11.3306 40.4271 11.0738 39.4605 11.3701L38.8884 10.738C39.0067 10.3627 39.0857 9.94789 39.0857 9.53308C39.0857 7.36024 37.3102 5.58246 35.1403 5.58246C32.9703 5.58246 31.1949 7.36024 31.1949 9.53308C31.1949 10.817 31.8064 11.943 32.7533 12.6738H29.7745C28.8671 12.6738 28.1175 13.4244 28.1175 14.3331C28.1175 15.2417 28.8671 15.9923 29.7745 15.9923H33.1873L32.556 26.5207L30.3269 24.3479C29.1235 22.9849 27.1114 22.9849 27.0325 22.9849H7.14771L7.24634 23.5183C7.24634 23.5183 7.91706 26.58 10.6591 27.2121C10.6591 27.7652 10.7577 28.7726 11.4482 29.622C12.0203 30.3331 12.8685 30.7676 13.9535 30.9257C14.1902 32.4071 15.1963 34.6985 17.7805 34.6985H23.2844L22.515 39.7553L23.9748 39.2417C24.5469 40.5059 26.5788 44.5355 30.248 46.4516C32.8717 47.8343 33.858 48.5059 34.4695 49.4343L35.1403 50.3825L35.811 49.4343C36.4225 48.5059 37.4089 47.8343 40.0325 46.4516C43.7018 44.5355 45.7336 40.5059 46.3057 39.2417L47.7655 39.7553L46.9962 34.6985H52.5C55.0842 34.6985 56.0903 32.4071 56.327 30.9257C57.412 30.7676 58.2603 30.3331 58.8323 29.622C59.5228 28.7726 59.6214 27.7652 59.6214 27.2121C62.3635 26.58 63.0145 23.538 63.0342 23.5183L63.1328 22.9849H49.0872H49.0675ZM45.7731 21.5825C45.7731 21.5825 45.852 21.5232 45.8915 21.4837L46.4635 22.9849H45.8323L45.3588 21.7207C45.5166 21.701 45.6547 21.6417 45.7928 21.5627L45.7731 21.5825ZM45.9704 34.6985L42.5181 37.9183L43.6229 38.3133C41.5515 40.8417 39.5591 41.9084 38.6714 42.3034L38.2177 34.6985H45.9704ZM41.9658 18.896C41.9658 18.896 42.0644 18.896 42.1039 18.896C42.2814 18.896 42.4787 18.8763 42.6562 18.8368L43.11 19.5676C42.6562 20.259 42.5181 21.1676 42.8338 22.017L43.1889 22.9849C42.8535 22.9849 41.0584 23.1034 39.9536 24.3479L37.7245 26.5207L37.0932 15.9923H38.2966L40.0917 18.0071C40.5652 18.5405 41.2359 18.8565 41.9461 18.896H41.9658ZM41.374 15.7553C41.5515 15.6565 41.6896 15.5183 41.8277 15.3602L42.3603 15.9528C42.3603 15.9528 42.3011 15.9726 42.2814 15.9923C42.1236 16.0911 42.0052 16.2096 41.9263 16.3479L41.3937 15.7553H41.374ZM40.2495 12.0022C40.7822 12.0022 41.3345 12.2195 41.7093 12.6541L43.6426 14.8071C43.9977 15.2022 44.1752 15.696 44.1358 16.2294C44.1358 16.3676 44.116 16.4862 44.0766 16.6244L43.9188 16.3676C43.7215 16.0713 43.4256 15.8738 43.0902 15.8343C43.0508 15.7158 42.9916 15.5775 42.893 15.4788L42.1236 14.6294C42.1236 14.6294 42.1433 14.4516 42.1433 14.3528C42.1433 13.4639 41.4529 12.7331 40.5652 12.6936C40.5455 12.6541 40.5257 12.6146 40.4863 12.575L39.9931 12.022C39.9931 12.022 40.1509 12.0022 40.2298 12.0022H40.2495ZM38.553 11.4886L38.7503 11.7059L38.987 11.9825L39.2435 12.259L39.6183 12.6738L39.7169 12.7726C39.4013 12.7726 39.0067 12.7726 38.6517 12.7726C38.5728 12.7726 38.5136 12.7726 38.4544 12.7726L38.3558 12.6738L38.3163 12.6146L38.0796 12.338L38.0007 12.259L37.9415 12.18L37.4286 11.6071L37.3694 11.5281L36.9749 11.0936L36.7973 10.896L36.5014 10.5602C36.5014 10.5602 36.4225 10.4417 36.4028 10.3825C36.3436 10.2047 36.4028 10.0269 36.5409 9.88863C36.5606 9.86888 36.5803 9.84912 36.6198 9.82937C36.6987 9.78987 36.7973 9.75036 36.8762 9.77011C36.9946 9.77011 37.113 9.82937 37.1919 9.92814L37.2313 9.96764L37.4286 10.1849L37.8823 10.6985L37.9612 10.7973L38.5136 11.4096L38.5925 11.4886H38.553ZM32.0431 9.53308C32.0431 7.83431 33.424 6.45159 35.1205 6.45159C36.8171 6.45159 38.1979 7.83431 38.1979 9.53308C38.1979 9.67135 38.1979 9.80962 38.1585 9.94789L38.0401 9.82937L37.685 9.43431C37.685 9.43431 37.5272 9.27628 37.4286 9.21703C37.3497 9.15777 37.2708 9.13801 37.1919 9.09851C36.9946 8.11085 36.1266 7.37999 35.1008 7.37999C33.9172 7.37999 32.9703 8.34789 32.9703 9.51332C32.9703 10.6788 33.9369 11.6467 35.1008 11.6467C35.4953 11.6467 35.8702 11.5281 36.1858 11.3306L36.8171 12.0615C36.3239 12.3973 35.7321 12.5948 35.1008 12.5948C33.4043 12.5948 32.0234 11.2121 32.0234 9.51332L32.0431 9.53308ZM35.7123 10.6788C35.5348 10.7775 35.3375 10.817 35.1403 10.817C34.4301 10.817 33.8777 10.2442 33.8777 9.55283C33.8777 8.86147 34.4498 8.28863 35.1403 8.28863C35.7123 8.28863 36.1858 8.66394 36.3436 9.19727C36.2252 9.25653 36.1266 9.31579 36.028 9.3948C35.6532 9.73061 35.5545 10.2442 35.7123 10.6985V10.6788ZM32.0431 34.6985L31.5894 42.3034C30.682 41.9281 28.7093 40.8615 26.6379 38.3133L27.7427 37.9183L24.2904 34.6985H32.0431ZM45.7928 38.1355L45.635 38.5306C45.635 38.5306 43.6229 43.5874 39.5986 45.6812C37.0735 47.0047 35.8702 47.775 35.1205 48.8615C34.3709 47.7553 33.1676 47.0047 30.6425 45.6812C26.6379 43.5874 24.6258 38.5899 24.6061 38.5306L24.4482 38.1355L23.5803 38.4318L24.0143 35.6269L26.0856 37.5627L25.1979 37.8788L25.553 38.3528C28.7093 42.4417 31.7472 43.2713 31.8656 43.3109L32.3785 43.4491L32.9111 34.6788L32.9703 33.8096L33.2859 28.496V28.0417L33.3451 27.5874V27.3504L34.0947 15.1232H29.7548C29.3208 15.1232 28.9657 14.7676 28.9657 14.3331C28.9657 13.8985 29.3208 13.543 29.7548 13.543H40.506C40.506 13.543 40.6441 13.543 40.723 13.5825C40.9992 13.6615 41.2359 13.8985 41.2753 14.1948C41.2753 14.2343 41.2753 14.2738 41.2753 14.3331C41.2753 14.4516 41.2359 14.5701 41.1964 14.6689C41.0978 14.8467 40.94 15.0047 40.7427 15.0639C40.6638 15.0837 40.5652 15.1034 40.4863 15.1034H36.1463L36.8762 27.3306V27.5676L36.9157 28.022V28.4763L37.251 33.7899L37.3102 34.659L37.8429 43.4294L38.3558 43.2911C38.4741 43.2516 41.5318 42.4417 44.6684 38.3331L45.0235 37.859L44.1358 37.543L46.2071 35.6071L46.6411 38.4121L45.7731 38.1158L45.7928 38.1355Z" fill="#818383"/>
<path d="M40.506 15.9924H39.283L40.6441 17.5134C40.9992 17.9084 41.4727 18.1257 42.0053 18.1652C42.0842 18.1652 42.1631 18.1652 42.242 18.1652L41.9066 17.6516C41.808 17.4739 41.7488 17.2961 41.7291 17.0985C41.6107 17.059 41.4924 16.98 41.3937 16.8615L40.6244 16.0121C40.6244 16.0121 40.5455 16.0121 40.5258 16.0121L40.506 15.9924Z" fill="white"/>
<path d="M46.3255 20.6145C46.3255 20.6145 46.3452 20.654 46.3649 20.6935L47.2329 23.0046H48.2982L47.3118 20.3577C47.1343 19.8639 46.7594 19.4688 46.286 19.2515C46.069 19.1527 45.852 19.0935 45.635 19.0737L46.1676 19.9231C46.3057 20.1404 46.3649 20.3774 46.3452 20.6145H46.3255Z" fill="white"/>
<path d="M44.116 21.1873L43.5439 20.2786C43.3466 20.7329 43.3072 21.2663 43.5045 21.7601L43.9582 22.9848H45.0234L44.4908 21.5626C44.333 21.4638 44.2146 21.3453 44.116 21.1873Z" fill="white"/>
<path d="M43.9188 17.6912L43.7215 17.3752L43.327 16.7628C43.2678 16.6641 43.1692 16.6048 43.0705 16.5653C43.0311 16.5653 42.9916 16.5455 42.9324 16.5455C42.8535 16.5455 42.7549 16.5653 42.6957 16.6245C42.5182 16.7431 42.4393 16.9406 42.4787 17.1184C42.4787 17.1776 42.4984 17.2171 42.5379 17.2764L42.9916 17.9875L43.1889 18.3036L43.3861 18.6196L43.6426 19.0344L43.8399 19.3505L44.0371 19.6665L44.5895 20.5554L44.767 20.832C44.8262 20.9307 44.9446 21.0097 45.0629 21.0295C45.1024 21.0295 45.1221 21.0295 45.1616 21.0295C45.2602 21.0295 45.3391 21.0097 45.418 20.9505C45.418 20.9505 45.5167 20.8517 45.5561 20.7924C45.6547 20.6542 45.6547 20.4566 45.5561 20.2986L45.3983 20.0616L44.8459 19.1727L44.6487 18.8566L44.4514 18.5406L44.116 18.027L43.9188 17.711V17.6912Z" fill="white"/>
<path d="M37.8232 28.0022L37.9416 30.1158H55.8931C56.8992 30.0368 57.6686 29.6812 58.142 29.0887C58.6155 28.4961 58.7141 27.7652 58.7338 27.3306H40.0129C40.0129 27.3306 38.7701 27.3306 37.843 28.0022H37.8232Z" fill="white"/>
<path d="M38.1585 33.8293H52.4803C54.5911 33.8293 55.2223 31.9133 55.3999 30.9849H37.981L38.1585 33.8293Z" fill="white"/>
<path d="M48.811 23.8738H43.248C43.248 23.8738 41.5317 23.8738 40.6046 24.9603H40.5848L38.9475 26.5998C39.5393 26.4615 39.9733 26.4615 40.0128 26.4615H58.852C60.8444 26.3232 61.6927 24.7232 62.0083 23.8738H48.8307H48.811Z" fill="white"/>
<path d="M32.28 30.9651H14.8611C15.0386 31.8935 15.6896 33.8095 17.7807 33.8095H32.1024L32.28 30.9651Z" fill="white"/>
<path d="M32.4575 28.0022C31.5106 27.3504 30.2875 27.3306 30.2875 27.3306H11.5469C11.5469 27.7652 11.6652 28.4961 12.1387 29.0887C12.6121 29.6812 13.3618 30.017 14.3876 30.0961H32.3391L32.4575 27.9825V28.0022Z" fill="white"/>
<path d="M31.333 26.58L29.6562 24.9405C28.7093 23.8738 27.0128 23.8541 27.0128 23.8541H8.27222C8.58785 24.7034 9.43611 26.3034 11.4285 26.4417H30.2678C30.2678 26.4417 30.761 26.4417 31.333 26.58Z" fill="white"/>
<path d="M35.1204 11.6861C33.9368 11.6861 32.9899 10.7182 32.9899 9.55276C32.9899 8.38732 33.9565 7.41942 35.1204 7.41942C36.166 7.41942 37.0142 8.17004 37.2115 9.13794C37.2904 9.15769 37.3693 9.1972 37.4482 9.25646C37.5468 9.31572 37.6257 9.37498 37.7047 9.47374L38.0597 9.8688L38.1781 9.98732C38.1781 9.84905 38.2176 9.71078 38.2176 9.57251C38.2176 7.87374 36.8367 6.49103 35.1401 6.49103C33.4436 6.49103 32.0627 7.87374 32.0627 9.57251C32.0627 11.2713 33.4436 12.654 35.1401 12.654C35.7714 12.654 36.3632 12.4565 36.8564 12.1207L36.2251 11.3898C35.9095 11.5873 35.5347 11.7058 35.1401 11.7058L35.1204 11.6861Z" fill="white"/>
<path d="M40.5848 12.6738C41.4528 12.7133 42.163 13.4441 42.163 14.333C42.163 14.4318 42.163 14.5306 42.1433 14.6096L42.9126 15.459C43.0112 15.5577 43.0704 15.6762 43.1099 15.8145C43.4452 15.8738 43.7411 16.0516 43.9384 16.3479L44.0962 16.6046C44.1357 16.4861 44.1554 16.3479 44.1554 16.2096C44.1751 15.6762 43.9976 15.1824 43.6622 14.7874L41.729 12.6343C41.3345 12.1997 40.8018 11.9824 40.2692 11.9824C40.1903 11.9824 40.1114 11.9824 40.0325 12.0022L40.5256 12.5553C40.5256 12.5553 40.5848 12.6343 40.6046 12.6738H40.5848Z" fill="white"/>
<path d="M44.1751 37.5825L45.0628 37.8986L44.7077 38.3726C41.5514 42.4615 38.5135 43.2912 38.3951 43.3307L37.8822 43.4689L37.3496 34.6986L37.2904 33.8294L36.9748 28.5159V28.0615L36.9156 27.6072V27.3702L36.166 15.143H40.5059C40.5059 15.143 40.6834 15.143 40.7624 15.1035C40.9596 15.0245 41.1174 14.8862 41.2161 14.7084C41.2753 14.6097 41.295 14.4912 41.295 14.3726C41.295 14.3331 41.295 14.2739 41.295 14.2344C41.2358 13.9381 41.0188 13.701 40.7426 13.622C40.6637 13.6023 40.6045 13.5825 40.5256 13.5825H29.7744C29.3404 13.5825 28.9854 13.9381 28.9854 14.3726C28.9854 14.8072 29.3404 15.1628 29.7744 15.1628H34.1144L33.3845 27.3899V27.627L33.345 28.0813V28.5356L33.0097 33.8492L32.9505 34.7183L32.4178 43.4887L31.905 43.3504C31.7866 43.3109 28.7289 42.501 25.5923 38.3924L25.2372 37.9183L26.125 37.6023L24.0536 35.6665L23.6196 38.4714L24.4876 38.1751L24.6454 38.5702C24.6454 38.5702 26.6576 43.627 30.6819 45.7208C33.2069 47.0443 34.4103 47.8146 35.1599 48.901C35.9095 47.7949 37.1129 47.0443 39.6379 45.7208C43.6425 43.627 45.6546 38.6294 45.6744 38.5702L45.8322 38.1751L46.7002 38.4714L46.2662 35.6665L44.1948 37.6023L44.1751 37.5825Z" fill="white"/>
<path d="M39.6382 12.6738L39.2633 12.259L39.0069 11.9824L38.7702 11.7059L38.5729 11.4886L38.494 11.4096L37.9416 10.7972L37.8627 10.6985L37.409 10.1849L37.2117 9.96761L37.1723 9.92811C37.1723 9.92811 36.975 9.78983 36.8566 9.77008C36.758 9.77008 36.6791 9.77008 36.6002 9.82934C36.5805 9.82934 36.5607 9.86885 36.5213 9.8886C36.3832 10.0269 36.324 10.2046 36.3832 10.3824C36.3832 10.4417 36.4424 10.5009 36.4818 10.5602L36.7777 10.896L36.9553 11.0935L37.3498 11.5281L37.409 11.6071L37.9219 12.18L37.9811 12.259L38.06 12.338L38.2967 12.6145L38.3362 12.6738L38.4348 12.7726C38.4348 12.7726 38.5729 12.7726 38.6321 12.7726C38.9872 12.7726 39.3817 12.7726 39.6973 12.7726L39.5987 12.6738H39.6382Z" fill="white"/>
<path d="M35.0413 33.5131V32.7428V28.5551L28.8076 37.286L35.0413 33.5131Z" fill="#F5E600"/>
<path d="M35.0413 28.0416V17.2366L32.1809 24.0317L35.0413 28.0416Z" fill="#F5E600"/>
<path d="M32.5756 29.049L34.8639 28.2984L24.7637 24.9601L30.228 29.8194L32.5756 29.049Z" fill="#F5E600"/>
<path d="M35.3374 28.4565L41.0582 36.4565L41.5908 37.1873L39.9732 29.9775L35.3374 28.4565Z" fill="#F5E600"/>
<path d="M35.3374 28.1403L45.4376 24.802L38.2175 24.1304L36.5605 26.4218L35.3374 28.1403Z" fill="#F5E600"/>
<path d="M35.3967 28.2984L40.0326 29.8194L45.4969 24.9601L41.591 26.2441L35.3967 28.2984Z" fill="#E50C22"/>
<path d="M30.2873 29.9775L28.6697 37.1873L34.9231 28.4565L30.2873 29.9775Z" fill="#E50C22"/>
<path d="M32.0628 24.1304H32.0431L24.823 24.802L34.9232 28.1403L32.0628 24.1304Z" fill="#E50C22"/>
<path d="M35.219 33.5131L41.4527 37.286L35.219 28.5551V33.5131Z" fill="#E50C22"/>
<path d="M35.219 17.2366V28.0416L38.0794 24.0317L35.219 17.2366Z" fill="#E50C22"/>
<path d="M40.1508 29.9379L46.0492 24.6836L38.2373 23.9528L35.2191 16.8021L35.1402 16.6046L35.0613 16.8021L32.043 23.9528L24.4087 24.6639H24.2114L24.3692 24.8021L30.1295 29.9379L28.3935 37.7207L35.1402 33.6318L41.729 37.6219L41.9065 37.7207L41.8473 37.5034L40.1705 29.9182L40.1508 29.9379ZM32.043 24.1305L34.9034 28.1404L24.8032 24.8021L32.0233 24.1305H32.043ZM24.7638 24.9602L34.864 28.2984L32.5757 29.0491L30.2281 29.8194L24.7638 24.9602ZM30.2873 29.9775L34.9232 28.4367L28.6894 37.1676L30.2873 29.9775ZM35.0415 32.7429V33.5133L28.8078 37.2861L35.0415 28.5552V32.7429ZM35.0415 28.0417L32.1811 24.0318L35.0415 17.2565V28.0417ZM40.0324 29.8194L35.3966 28.2787L41.5909 26.2244L45.4771 24.9404L40.0127 29.7997L40.0324 29.8194ZM45.4376 24.8021L35.3374 28.1404L36.5605 26.4417L38.1978 24.1305L45.4376 24.8021ZM35.2191 17.2367L38.0795 24.012L35.2191 28.0219V17.2367ZM35.2191 33.5133V28.5552L41.4528 37.2861L35.2191 33.5133ZM41.0582 36.4565L35.3374 28.4565L39.9733 29.9972L41.5711 37.1873L41.0582 36.4565Z" fill="#818383"/>
</svg>
