<svg width="20" height="20" viewBox="0 0 20 20" fill="none" xmlns="http://www.w3.org/2000/svg">
<path fill-rule="evenodd" clip-rule="evenodd" d="M6.70089 2.30078L6.73021 2.30078V3.00078V3.70078C6.06526 3.70078 5.60865 3.70133 5.25468 3.73025C4.90888 3.7585 4.72313 3.81031 4.58869 3.8788C4.28136 4.0354 4.03149 4.28527 3.8749 4.5926C3.8064 4.72703 3.75459 4.91279 3.72634 5.25859C3.69742 5.61256 3.69688 6.06917 3.69688 6.73411V13.2674C3.69688 13.9324 3.69742 14.389 3.72634 14.743C3.75459 15.0888 3.8064 15.2745 3.8749 15.409C4.03149 15.7163 4.28136 15.9662 4.58869 16.1228C4.72313 16.1913 4.90888 16.2431 5.25468 16.2713C5.60865 16.3002 6.06526 16.3008 6.73021 16.3008H13.2635C13.9285 16.3008 14.3851 16.3002 14.7391 16.2713C15.0849 16.2431 15.2706 16.1913 15.4051 16.1228C15.7124 15.9662 15.9623 15.7163 16.1189 15.409C16.1874 15.2745 16.2392 15.0888 16.2674 14.743C16.2963 14.389 16.2969 13.9324 16.2969 13.2674V12.3341C16.2969 11.9475 16.6103 11.6341 16.9969 11.6341C17.3835 11.6341 17.6969 11.9475 17.6969 12.3341V13.2968C17.6969 13.9253 17.6969 14.4393 17.6628 14.857C17.6274 15.2894 17.5521 15.6799 17.3663 16.0446C17.0754 16.6153 16.6114 17.0794 16.0406 17.3702C15.676 17.556 15.2855 17.6313 14.8531 17.6667C14.4353 17.7008 13.9214 17.7008 13.2929 17.7008H6.70088C6.07239 17.7008 5.5584 17.7008 5.14068 17.6667C4.7083 17.6313 4.3178 17.556 3.9531 17.3702C3.38235 17.0794 2.9183 16.6153 2.62749 16.0446C2.44167 15.6799 2.36632 15.2894 2.33099 14.857C2.29686 14.4393 2.29687 13.9253 2.29688 13.2968V6.70479C2.29687 6.07631 2.29686 5.56231 2.33099 5.14458C2.36632 4.71221 2.44167 4.3217 2.62749 3.95701C2.9183 3.38625 3.38235 2.92221 3.9531 2.6314C4.3178 2.44558 4.7083 2.37022 5.14068 2.3349C5.5584 2.30077 6.0724 2.30077 6.70089 2.30078ZM6.73021 3.00078V3.70078H7.66279C8.04939 3.70078 8.36354 3.38738 8.36354 3.00078C8.36354 2.61418 8.05014 2.30078 7.66354 2.30078H6.73021V3.00078ZM10.0746 3.00079C10.0746 2.61419 10.388 2.30079 10.7746 2.30079H16.9969C17.3835 2.30079 17.6969 2.61419 17.6969 3.00079L17.6969 9.22301C17.6969 9.60961 17.3835 9.92301 16.9969 9.92301C16.6103 9.92301 16.2969 9.60961 16.2969 9.22301L16.2969 4.74792L9.33656 12.0397C9.06962 12.3193 8.62652 12.3296 8.34688 12.0627C8.06723 11.7957 8.05692 11.3527 8.32386 11.073L15.361 3.70079H10.7746C10.388 3.70079 10.0746 3.38739 10.0746 3.00079Z" fill="#014AAA"/>
</svg>
