<svg width="16" height="17" viewBox="0 0 16 17" fill="none" xmlns="http://www.w3.org/2000/svg">
<path fill-rule="evenodd" clip-rule="evenodd" d="M4.29307 8.09018L7.30489 11.0041C7.61503 11.3042 8.10727 11.3042 8.41741 11.0041L11.4292 8.09018C11.7468 7.78297 11.7551 7.27651 11.4479 6.95897C11.1407 6.64143 10.6342 6.63306 10.3167 6.94028L8.66115 8.54201V2.8C8.66115 2.35817 8.30298 2 7.86115 2C7.41932 2 7.06115 2.35817 7.06115 2.8V8.54201L5.4056 6.94028C5.08806 6.63306 4.58159 6.64143 4.27438 6.95897C3.96716 7.27651 3.97553 7.78297 4.29307 8.09018ZM3.3002 10.4291C3.3002 9.98731 2.94202 9.62914 2.5002 9.62914C2.05837 9.62914 1.7002 9.98731 1.7002 10.4291V12.2079C1.7002 13.423 2.68517 14.4079 3.9002 14.4079H11.9427C13.1578 14.4079 14.1427 13.423 14.1427 12.2079V10.4291C14.1427 9.98731 13.7846 9.62914 13.3427 9.62914C12.9009 9.62914 12.5427 9.98731 12.5427 10.4291V12.2079C12.5427 12.5393 12.2741 12.8079 11.9427 12.8079H3.9002C3.56882 12.8079 3.3002 12.5393 3.3002 12.2079V10.4291Z" fill="white"/>
</svg>
