<svg width="20" height="20" viewBox="0 0 20 20" fill="none" xmlns="http://www.w3.org/2000/svg">
<path fill-rule="evenodd" clip-rule="evenodd" d="M5.44848 9.24895L9.44848 12.9156C9.7161 13.1609 10.1269 13.1609 10.3945 12.9156L14.3945 9.24895C14.6795 8.98772 14.6987 8.54492 14.4375 8.25994C14.1763 7.97495 13.7335 7.9557 13.4485 8.21693L10.6215 10.8083V2.79961C10.6215 2.41301 10.3081 2.09961 9.92148 2.09961C9.53488 2.09961 9.22148 2.41301 9.22148 2.79961V10.8083L6.39449 8.21693C6.10951 7.9557 5.66671 7.97495 5.40548 8.25994C5.14424 8.54492 5.16349 8.98772 5.44848 9.24895ZM3.50156 12.3996C3.50156 12.013 3.18816 11.6996 2.80156 11.6996C2.41496 11.6996 2.10156 12.013 2.10156 12.3996V14.5996C2.10156 15.9803 3.22085 17.0996 4.60156 17.0996H15.4016C16.7823 17.0996 17.9016 15.9803 17.9016 14.5996V12.3996C17.9016 12.013 17.5882 11.6996 17.2016 11.6996C16.815 11.6996 16.5016 12.013 16.5016 12.3996V14.5996C16.5016 15.2071 16.0091 15.6996 15.4016 15.6996H4.60156C3.99405 15.6996 3.50156 15.2071 3.50156 14.5996V12.3996Z" fill="white"/>
</svg>
