<svg width="16" height="16" viewBox="0 0 16 16" fill="none" xmlns="http://www.w3.org/2000/svg">
<path fill-rule="evenodd" clip-rule="evenodd" d="M5.13482 1.2002L5.45362 1.2002C5.89545 1.2002 6.25422 1.55837 6.25422 2.0002C6.25422 2.44202 5.89604 2.8002 5.45422 2.8002H5.16758C4.61766 2.8002 4.25247 2.80082 3.973 2.82365C3.70286 2.84572 3.58318 2.88449 3.50976 2.92191C3.29965 3.02896 3.12882 3.19979 3.02176 3.40991C2.98435 3.48333 2.94558 3.60301 2.92351 3.87315C2.90067 4.15262 2.90005 4.51695 2.90005 5.06686V10.4335C2.90005 10.9834 2.90067 11.3478 2.92351 11.6272C2.94558 11.8974 2.98435 12.0171 3.02176 12.0905C3.12882 12.3006 3.29965 12.4714 3.50976 12.5785C3.58318 12.6159 3.70286 12.6547 3.973 12.6767C4.25247 12.6996 4.6168 12.7002 5.16672 12.7002H10.5334C11.0833 12.7002 11.4476 12.6996 11.7271 12.6767C11.9972 12.6547 12.1169 12.6159 12.1903 12.5785C12.4005 12.4714 12.5713 12.3006 12.6783 12.0905C12.7808 11.8895 12.8 11.7698 12.8 10.6252V10.146C12.8 9.7042 13.1582 9.34603 13.6 9.34603C14.0419 9.34603 14.4001 9.7042 14.4001 10.146V10.6252C14.4001 10.6811 14.4001 10.7356 14.4002 10.7888C14.4012 11.6912 14.4018 12.2324 14.104 12.8169C13.8435 13.328 13.4279 13.7436 12.9167 14.0041C12.5802 14.1756 12.2265 14.2413 11.8574 14.2714C11.505 14.3002 11.0748 14.3002 10.5653 14.3002H5.13484C4.62528 14.3002 4.19512 14.3002 3.84271 14.2714C3.47363 14.2413 3.11995 14.1756 2.78338 14.0041C2.2722 13.7436 1.8566 13.328 1.59615 12.8169C1.42466 12.4803 1.35897 12.1266 1.32882 11.7575C1.30003 11.4051 1.30004 10.975 1.30005 10.4654V5.03497C1.30004 4.52542 1.30003 4.09527 1.32882 3.74285C1.35897 3.37377 1.42466 3.0201 1.59615 2.68352C1.8566 2.17235 2.2722 1.75675 2.78338 1.4963C3.11995 1.3248 3.47363 1.25912 3.84271 1.22897C4.19512 1.20017 4.62527 1.20018 5.13482 1.2002ZM7.68893 2.0002C7.68893 1.55837 8.0471 1.2002 8.48893 1.2002H13.6C14.0419 1.2002 14.4 1.55837 14.4 2.0002L14.4 7.11131C14.4 7.55314 14.0419 7.91131 13.6 7.91131C13.1582 7.91131 12.8 7.55314 12.8 7.11131L12.8 3.99692L7.4704 9.58035C7.16533 9.89995 6.65894 9.91173 6.33934 9.60666C6.01974 9.30159 6.00796 8.79519 6.31303 8.47559L11.7304 2.8002H8.48893C8.0471 2.8002 7.68893 2.44203 7.68893 2.0002Z" fill="#2D2D2D"/>
</svg>
