<svg width="40" height="40" viewBox="0 0 40 40" fill="none" xmlns="http://www.w3.org/2000/svg">
<rect width="40" height="40" rx="20" fill="#2D2D2D"/>
<path d="M18.8291 21.8525H21.4746L22.6025 23.3086C23.3101 22.478 23.71 21.2271 23.71 19.5762C23.71 16.3975 22.2129 14.6748 19.916 14.6748C17.6191 14.6748 16.1016 16.3975 16.1016 19.5762C16.1016 22.7549 17.6191 24.4775 19.916 24.4775C20.2134 24.4775 20.5005 24.4468 20.7773 24.3955L18.8291 21.8525ZM26.8477 19.5762C26.8477 22.2217 25.9453 24.2622 24.4893 25.5439L26.6016 28.2305H23.71L22.5205 26.7334C21.7207 27.0513 20.8389 27.2051 19.916 27.2051C15.958 27.2051 12.9639 24.3955 12.9639 19.5762C12.9639 14.7363 15.958 11.9473 19.916 11.9473C23.833 11.9473 26.8477 14.7363 26.8477 19.5762Z" fill="white"/>
</svg>
