<svg width="20" height="20" viewBox="0 0 20 20" fill="none" xmlns="http://www.w3.org/2000/svg">
<path fill-rule="evenodd" clip-rule="evenodd" d="M5.44848 9.24944L9.44848 12.9161C9.7161 13.1614 10.1269 13.1614 10.3945 12.9161L14.3945 9.24944C14.6795 8.9882 14.6987 8.54541 14.4375 8.26042C14.1763 7.97544 13.7335 7.95619 13.4485 8.21742L10.6215 10.8088V2.8001C10.6215 2.4135 10.3081 2.1001 9.92148 2.1001C9.53488 2.1001 9.22148 2.4135 9.22148 2.8001V10.8088L6.39449 8.21742C6.10951 7.95619 5.66671 7.97544 5.40548 8.26042C5.14424 8.54541 5.16349 8.9882 5.44848 9.24944ZM3.50156 12.4001C3.50156 12.0135 3.18816 11.7001 2.80156 11.7001C2.41496 11.7001 2.10156 12.0135 2.10156 12.4001V14.6001C2.10156 15.9808 3.22085 17.1001 4.60156 17.1001H15.4016C16.7823 17.1001 17.9016 15.9808 17.9016 14.6001V12.4001C17.9016 12.0135 17.5882 11.7001 17.2016 11.7001C16.815 11.7001 16.5016 12.0135 16.5016 12.4001V14.6001C16.5016 15.2076 16.0091 15.7001 15.4016 15.7001H4.60156C3.99405 15.7001 3.50156 15.2076 3.50156 14.6001V12.4001Z" fill="#014AAA"/>
</svg>
