<svg width="29" height="28" viewBox="0 0 29 28" fill="none" xmlns="http://www.w3.org/2000/svg">
<rect x="4.4" y="3.9" width="8.2" height="8.2" rx="1.1" stroke="url(#paint0_linear_1918_79774)" stroke-width="1.8"/>
<rect x="4.4" y="15.9" width="8.2" height="8.2" rx="1.1" stroke="url(#paint1_linear_1918_79774)" stroke-width="1.8"/>
<path d="M16.4 5C16.4 4.39249 16.8925 3.9 17.5 3.9H19.5C22.3167 3.9 24.6 6.18335 24.6 9V11C24.6 11.6075 24.1075 12.1 23.5 12.1H17.5C16.8925 12.1 16.4 11.6075 16.4 11V5Z" stroke="url(#paint2_linear_1918_79774)" stroke-width="1.8"/>
<rect x="16.4" y="15.9" width="8.2" height="8.2" rx="1.1" stroke="url(#paint3_linear_1918_79774)" stroke-width="1.8"/>
<defs>
<linearGradient id="paint0_linear_1918_79774" x1="2.90298" y1="0.75" x2="12.9142" y2="5.14233" gradientUnits="userSpaceOnUse">
<stop stop-color="#00866B"/>
<stop offset="1" stop-color="#014AAA"/>
</linearGradient>
<linearGradient id="paint1_linear_1918_79774" x1="2.90298" y1="12.75" x2="12.9142" y2="17.1423" gradientUnits="userSpaceOnUse">
<stop stop-color="#00866B"/>
<stop offset="1" stop-color="#014AAA"/>
</linearGradient>
<linearGradient id="paint2_linear_1918_79774" x1="14.903" y1="0.75" x2="24.9142" y2="5.14233" gradientUnits="userSpaceOnUse">
<stop stop-color="#00866B"/>
<stop offset="1" stop-color="#014AAA"/>
</linearGradient>
<linearGradient id="paint3_linear_1918_79774" x1="14.903" y1="12.75" x2="24.9142" y2="17.1423" gradientUnits="userSpaceOnUse">
<stop stop-color="#00866B"/>
<stop offset="1" stop-color="#014AAA"/>
</linearGradient>
</defs>
</svg>
